<svg xmlns="http://www.w3.org/2000/svg" version="1.1" xmlns:xlink="http://www.w3.org/1999/xlink" width="512" height="512" x="0" y="0" viewBox="0 0 497.003 497.003" style="enable-background:new 0 0 512 512" xml:space="preserve"><g><path fill="#97da7b" d="M211.768 63.43 182.6 76.743a86.406 86.406 0 0 0-4.997 2.49V56.046A60.054 60.054 0 0 1 188.89 21l6.93-9.643c3.787-5.269-1.864-12.145-7.767-9.451l-20.443 9.33a60.055 60.055 0 0 0-35.119 54.633 60.056 60.056 0 0 0-35.119-54.633L76.93 1.906c-5.903-2.694-11.554 4.182-7.767 9.451L76.093 21a60.05 60.05 0 0 1 11.286 35.046v23.187a85.768 85.768 0 0 0-4.997-2.49L53.214 63.43c-8.423-3.844-16.485 5.966-11.083 13.485l9.888 13.759a85.69 85.69 0 0 1 16.104 50.005v14.016h128.735v-14.016a85.69 85.69 0 0 1 16.104-50.005l9.888-13.759c5.404-7.519-2.659-17.33-11.082-13.485z" opacity="1" data-original="#97da7b"></path><path fill="#80d261" d="m82.38 76.741-29.17-13.31c-4.61-2.11-9.1-.12-11.34 3.34l21.85 9.97c13.45 5.43 22.03 3.01 23.66 2.49-1.63-.88-3.3-1.71-5-2.49zm14.99-65.5-20.44-9.33c-4.1-1.87-8.07.87-8.85 4.48l10.63 4.85c21.39 9.76 53.78 38.51 53.78 54.63 0-23.52-13.72-44.87-35.12-54.63zm90.68-9.33-9.81 4.48c.35 1.59.07 3.36-1.09 4.97l-6.93 9.64c-.07.1-.14.2-.22.31-10.87 15.33-9.95 36.12 1.84 50.76l5.76 7.16v-23.18c0-12.58 3.95-24.84 11.29-35.05l6.93-9.64c3.79-5.27-1.86-12.15-7.77-9.45zm23.72 61.52-7.32 3.34c1.87 2.86 2.18 6.74-.27 10.14l-9.88 13.76a85.7 85.7 0 0 0-16.11 50.01v14.01h18.67v-14.01a85.69 85.69 0 0 1 16.1-50.01l9.89-13.76c5.4-7.51-2.66-17.33-11.08-13.48z" opacity="1" data-original="#80d261"></path><path fill="#ffd15b" d="M132.207 438.148c-51.431 0-97.361-32.193-114.906-80.539l-.85-2.343a235.923 235.923 0 0 1 0-160.966l.85-2.343c17.545-48.346 63.475-80.539 114.906-80.539h1.164c51.14 0 96.875 31.835 114.633 79.793a235.92 235.92 0 0 1 1.028 161.013l-1.66 4.664c-17.335 48.72-63.452 81.26-115.165 81.26z" opacity="1" data-original="#ffd15b"></path><path fill="#ffc344" d="M262.68 273.131c0 26.75-4.55 53.5-13.65 79.09l-1.66 4.67c-17.33 48.72-63.45 81.26-115.16 81.26-5.02 0-9.99-.31-14.88-.91 45.5-5.58 84.6-36.37 100.24-80.35l1.66-4.67a235.81 235.81 0 0 0 13.65-79.1c0-27.75-4.89-55.49-14.67-81.91-16.08-43.43-55.1-73.63-100.3-78.95 4.71-.56 9.48-.84 14.3-.84h1.16c51.14 0 96.88 31.83 114.63 79.79a235.742 235.742 0 0 1 14.68 81.92z" opacity="1" data-original="#ffc344"></path><path fill="#97da7b" d="M418.969 72.123c4.195-4.195 11.057-4.064 15.062.314 86.395 94.435 83.889 241.088-7.517 332.494-93.983 93.983-246.37 93.982-340.352 0l27.664-27.664L273.5 241.327 398.838 92.253z" opacity="1" data-original="#97da7b"></path><path fill="#80d261" d="M426.51 404.931c-50.66 50.66-118.3 74.01-184.6 70.06 56.69-3.39 112.41-26.75 155.72-70.06 87.057-87.056 93.471-224.229 19.253-318.668a8.264 8.264 0 0 0-9.463-2.592l11.546-11.546c4.195-4.195 11.056-4.064 15.061.313 86.402 94.433 83.897 241.089-7.517 332.493z" opacity="1" data-original="#80d261"></path><path fill="#ee6161" d="M398.849 92.242c78.709 78.709 78.709 206.316 0 285.024s-206.315 78.709-285.024 0l142.512-142.512z" opacity="1" data-original="#ee6161"></path><path fill="#e94444" d="M398.85 377.271c-42.87 42.87-100.26 62.39-156.34 58.55 46.88-3.2 92.85-22.72 128.69-58.55 74.04-74.05 78.42-191.37 13.16-270.54l14.49-14.49c78.71 78.71 78.71 206.32 0 285.03z" opacity="1" data-original="#e94444"></path><circle cx="238.417" cy="403.679" r="92.021" fill="#ffd15b" opacity="1" data-original="#ffd15b"></circle><path fill="#ffc344" d="M330.44 403.681c0 50.82-41.2 92.02-92.02 92.02-4.41 0-8.76-.31-13-.92 44.67-6.31 79.02-44.69 79.02-91.1s-34.35-84.79-79.02-91.1c4.24-.61 8.59-.92 13-.92 50.82 0 92.02 41.2 92.02 92.02z" opacity="1" data-original="#ffc344"></path><path fill="#f79595" d="m108.699 492.734-1.194-.384a32.85 32.85 0 0 0-20.188 0c-36.477 11.722-74.463-12.368-83.824-53.16l-.102-.443a134.597 134.597 0 0 1 0-60.049l.412-1.796c9.243-40.274 46.442-64.368 82.639-53.527l1.528.458a32.77 32.77 0 0 0 18.879 0l2.706-.81c35.74-10.704 72.558 12.652 82.33 52.226l.326 1.322a134.553 134.553 0 0 1 0 64.303c-9.898 40.089-47.494 63.435-83.512 51.86z" opacity="1" data-original="#f79595"></path><path fill="#f47c7c" d="M192.21 440.871c-7.32 29.63-29.76 50.12-55.52 54.11 14.96-12.17 26.28-32.41 31.64-54.11 5.2-21.04 5.2-43.25 0-64.3l-.32-1.32c-6.24-25.28-20.04-45.94-38.51-54.78 28.6 1.13 54.44 22.59 62.39 54.78l.32 1.32c5.2 21.05 5.2 43.26 0 64.3z" opacity="1" data-original="#f47c7c"></path><path fill="#97da7b" d="M98.055 353.905a7.499 7.499 0 0 1-7.5-7.5c0-46.416-29.3-62.73-29.596-62.89a7.5 7.5 0 0 1 7.111-13.207c1.53.824 37.484 20.82 37.484 76.097a7.498 7.498 0 0 1-7.499 7.5z" opacity="1" data-original="#97da7b"></path><path fill="#935b50" d="M356.793 342.711a7.481 7.481 0 0 1-5.304-2.196l-11.326-11.326a7.5 7.5 0 0 1 10.607-10.607l11.326 11.326a7.5 7.5 0 0 1-5.303 12.803zM388.237 296.387a7.473 7.473 0 0 1-3.049-.651l-14.599-6.505a7.5 7.5 0 0 1 6.105-13.701l14.599 6.505a7.5 7.5 0 0 1-3.056 14.352zM400.52 241.514c-.126 0-.253-.003-.382-.01l-15.876-.796a7.498 7.498 0 0 1-7.114-7.866 7.5 7.5 0 0 1 7.866-7.114l15.876.796a7.498 7.498 0 0 1 7.114 7.866 7.5 7.5 0 0 1-7.484 7.124zM376.949 190.624a7.501 7.501 0 0 1-2.382-14.613l14.983-5.023a7.5 7.5 0 0 1 4.767 14.223l-14.983 5.023a7.52 7.52 0 0 1-2.385.39z" opacity="1" data-original="#935b50"></path><path fill="#ffefd2" d="M132.491 210.538a7.477 7.477 0 0 1-5.303-2.196l-16.525-16.524a7.498 7.498 0 0 1-.001-10.606 7.5 7.5 0 0 1 10.606-.001l11.223 11.222 11.223-11.222c2.929-2.929 7.678-2.928 10.606.001s2.929 7.678-.001 10.606l-16.525 16.524a7.481 7.481 0 0 1-5.303 2.196zM200.134 210.538a7.477 7.477 0 0 1-5.303-2.196l-16.525-16.524a7.498 7.498 0 0 1-.001-10.606 7.5 7.5 0 0 1 10.606-.001l11.223 11.222 11.223-11.222c2.928-2.929 7.677-2.928 10.606.001s2.929 7.678-.001 10.606l-16.525 16.524a7.481 7.481 0 0 1-5.303 2.196zM98.342 257.902a7.503 7.503 0 0 1-5.304-2.197L76.514 239.18a7.498 7.498 0 0 1 .001-10.606 7.5 7.5 0 0 1 10.606.001l11.221 11.222 11.222-11.223a7.5 7.5 0 0 1 10.607 10.607l-16.525 16.525a7.506 7.506 0 0 1-5.304 2.196zM165.984 257.902a7.503 7.503 0 0 1-5.304-2.197l-16.524-16.525a7.498 7.498 0 0 1 .001-10.606 7.5 7.5 0 0 1 10.606.001l11.221 11.222 11.222-11.223a7.5 7.5 0 0 1 10.607 10.607l-16.525 16.525a7.502 7.502 0 0 1-5.304 2.196z" opacity="1" data-original="#ffefd2"></path><circle cx="255.199" cy="350.918" r="7.5" fill="#ffefd2" opacity="1" data-original="#ffefd2"></circle></g></svg>