<svg xmlns="http://www.w3.org/2000/svg" version="1.1" xmlns:xlink="http://www.w3.org/1999/xlink" width="512" height="512" x="0" y="0" viewBox="0 0 497 497" style="enable-background:new 0 0 512 512" xml:space="preserve"><g><path fill="#f3d69e" d="M418.647 114.164c-.975-25.614 21.377-48.379 31.728-57.508a8.32 8.32 0 0 1 10.549-.402c11.015 8.315 35.034 29.314 36.009 54.929 1.267 33.281-15.619 50.72-37.237 51.544-21.618.823-39.782-15.282-41.049-48.563z" opacity="1" data-original="#f3d69e"></path><path fill="#efcb83" d="M313.465 165.166c29.786 1.065 54.268 28.937 63.967 41.722a9.675 9.675 0 0 1-.439 12.268c-10.587 12.06-36.997 38.113-66.783 37.048-38.702-1.384-57.477-22.46-56.579-47.6.9-25.14 21.132-44.822 59.834-43.438z" opacity="1" data-original="#efcb83"></path><path fill="#f3d69e" d="M204.223 275.845c0 29.805-26.98 55.268-39.41 65.417a9.675 9.675 0 0 1-12.275 0c-12.43-10.149-39.41-35.612-39.41-65.417 0-38.727 20.393-58.243 45.548-58.243s45.547 19.516 45.547 58.243zM482.379 292.869c15.958 25.173 6.804 61.124 1.74 76.351a9.675 9.675 0 0 1-10.368 6.572c-15.933-1.917-52.352-8.977-68.311-34.15-20.735-32.708-13.961-60.11 7.285-73.578 21.247-13.468 48.919-7.903 69.654 24.805zM367.98 83.1c-16.731 15.576-45.124 13.738-57.318 12.064a7.42 7.42 0 0 1-6.415-6.891c-.799-12.282-.605-40.733 16.126-56.31 21.739-20.238 43.352-18.99 56.498-4.869 13.147 14.121 12.849 35.767-8.891 56.006z" opacity="1" data-original="#f3d69e"></path><path fill="#efcb83" d="M376.872 27.094c-9.598-10.31-23.711-13.745-39.089-6.979 3.336 1.739 6.393 4.083 9.089 6.979 13.146 14.121 12.848 35.768-8.892 56.006-7.569 7.046-17.523 10.522-27.286 12.068 12.21 1.672 40.569 3.495 57.286-12.068 21.74-20.239 22.038-41.885 8.892-56.006z" opacity="1" data-original="#efcb83"></path><path fill="#dbb56a" d="M273.738 389.72c-10.625-23.327 1.413-52.872 7.523-65.247a8.321 8.321 0 0 1 9.607-4.376c13.347 3.512 43.539 13.822 54.164 37.148 13.806 30.309 4.803 52.853-14.884 61.821-19.686 8.968-42.604.963-56.41-29.346zM220.15 410.883c16.211 15.022 16.462 42.528 15.717 54.405a7.174 7.174 0 0 1-6.187 6.676c-11.785 1.646-39.231 3.487-55.442-11.535-21.063-19.518-21.4-40.445-8.722-54.127 12.679-13.682 33.571-14.937 54.634 4.581z" opacity="1" data-original="#dbb56a"></path><path fill="#f3d69e" d="M434.915 493.253c-20.668 7.829-45.41-4.192-55.713-10.146a7.174 7.174 0 0 1-3.224-8.512c3.773-11.285 14.342-36.682 35.01-44.51 26.854-10.172 45.743-1.157 52.351 16.286 6.607 17.443-1.57 36.71-28.424 46.882z" opacity="1" data-original="#f3d69e"></path><path fill="#f5deb2" d="M69.603 40.383c2.571 21.951-15.102 43.03-23.381 51.577a7.173 7.173 0 0 1-9.04 1.059C27.152 86.617 5.085 70.193 2.514 48.242-.827 19.721 12.508 3.589 31.034 1.418 49.56-.752 66.262 11.862 69.603 40.383z" opacity="1" data-original="#f5deb2"></path><path fill="#dbb56a" d="M106.164 419.582c-2.425 25.518-27.596 45.122-39.064 52.8a8.321 8.321 0 0 1-10.51-.999c-9.816-9.701-30.843-33.696-28.418-59.213 3.151-33.156 22.198-48.205 43.735-46.158 21.537 2.046 37.408 20.414 34.257 53.57zM71.522 231.826c-21.281 14.288-52.395 7.231-65.6 3.221a8.322 8.322 0 0 1-5.885-8.765c1.288-13.741 6.534-45.21 27.815-59.499 27.651-18.565 51.362-13.36 63.421 4.601s7.9 41.878-19.751 60.442zM138.424 71.454c12.245-24.814 45.167-34.928 59.685-38.271a8.984 8.984 0 0 1 10.22 5.043c6.179 13.556 18.18 45.838 5.935 70.652-15.91 32.241-40.905 40.111-61.848 29.777-20.942-10.334-29.902-34.96-13.992-67.201z" opacity="1" data-original="#dbb56a"></path><path fill="#efcb83" d="M496.933 111.183c-.975-25.614-24.994-46.613-36.009-54.928a8.321 8.321 0 0 0-10.549.401 132.797 132.797 0 0 0-8.82 8.553c11.344 10.631 24.657 27.038 25.378 45.974.985 25.869-9.001 42.162-23.648 48.524 5.049 2.227 10.603 3.24 16.411 3.02 21.618-.823 38.504-18.263 37.237-51.544z" opacity="1" data-original="#efcb83"></path><path fill="#edc472" d="M377.432 206.888c-9.699-12.785-34.181-40.657-63.967-41.722-7.325-.262-13.985.234-19.981 1.375 25.183 5.898 45.361 29.028 53.948 40.347a9.675 9.675 0 0 1-.439 12.268c-8.757 9.975-28.344 29.51-51.71 35.367 4.598.906 9.564 1.489 14.926 1.68 29.786 1.065 56.196-24.988 66.783-37.047a9.674 9.674 0 0 0 .44-12.268z" opacity="1" data-original="#edc472"></path><path fill="#efcb83" d="M158.676 217.602c-5.257 0-10.301.865-15 2.566 17.783 6.442 30.548 25.044 30.548 55.677 0 23.853-17.275 44.915-30.548 57.582a155.237 155.237 0 0 0 8.862 7.836 9.675 9.675 0 0 0 12.275 0c12.43-10.149 39.41-35.612 39.41-65.417 0-38.727-20.392-58.244-45.547-58.244zM482.379 292.87c-18.29-28.852-41.976-36.574-61.89-28.752 11.232 4.319 22.303 13.629 31.889 28.752 15.958 25.173 6.804 61.124 1.74 76.351a9.72 9.72 0 0 1-1.291 2.542c8.218 2.205 15.682 3.4 20.923 4.03a9.676 9.676 0 0 0 10.368-6.572c5.065-15.228 14.219-51.178-1.739-76.351z" opacity="1" data-original="#efcb83"></path><path fill="#cba863" d="M346.171 357.548c-10.711-23.516-41.148-33.909-54.603-37.449a8.39 8.39 0 0 0-9.685 4.411c-.361.731-.744 1.527-1.141 2.373 13.393 5.943 28.329 15.613 35.186 30.665 13.918 30.554 4.842 53.281-15.005 62.321-.091.042-.184.077-.275.118 9.957 4.639 20.64 4.382 30.518-.118 19.848-9.039 28.923-31.766 15.005-62.321zM220.15 410.883c-16.916-15.675-33.718-17.943-46.248-11.145 5.311 2.413 10.773 6.071 16.248 11.145 16.211 15.021 16.462 42.528 15.717 54.404a7.164 7.164 0 0 1-5.982 6.63c11.694 1.948 23.199.968 29.796.047a7.175 7.175 0 0 0 6.187-6.677c.744-11.876.493-39.382-15.718-54.404z" opacity="1" data-original="#cba863"></path><path fill="#efcb83" d="M463.338 446.371c-6.185-16.328-23.132-25.268-47.298-18.003 8.232 3.326 14.156 9.708 17.298 18.003 6.607 17.443-1.569 36.71-28.424 46.882-.301.114-.605.21-.907.315 9.848 2.6 20.857 3.492 30.907-.315 26.855-10.172 35.032-29.439 28.424-46.882z" opacity="1" data-original="#efcb83"></path><path fill="#f3d69e" d="M69.603 40.383C66.262 11.863 49.56-.752 31.034 1.418c-4.063.476-7.876 1.625-11.319 3.427 10.096 5.499 17.744 17.239 19.888 35.538 1.913 16.329-7.376 32.171-15.668 42.735 4.982 4.351 9.818 7.712 13.247 9.901a7.175 7.175 0 0 0 9.04-1.059c8.279-8.547 25.952-29.626 23.381-51.577z" opacity="1" data-original="#f3d69e"></path><path fill="#cba863" d="M71.907 366.011c-6.526-.621-12.82.34-18.516 2.888 15.359 6.61 25.33 23.776 22.773 50.683-1.75 18.408-15.335 33.737-27.075 43.733a132.418 132.418 0 0 0 7.502 8.068 8.322 8.322 0 0 0 10.51.999c11.468-7.678 36.639-27.282 39.064-52.8 3.15-33.156-12.721-51.524-34.258-53.571zM91.221 170.828c-9.513-14.169-25.184-20.003-45.358-13.101 6.535 2.748 10.986 6.951 15.115 13.101 12.157 18.107 7.964 42.217-19.911 60.932-5.581 3.747-11.833 6.028-18.263 7.295 14.931 2.342 33.986 2.453 48.506-7.295 27.875-18.716 32.068-42.825 19.911-60.932zM208.359 38.402a9.056 9.056 0 0 0-10.302-5.084c-4.913 1.131-11.92 3.037-19.525 6.009 6.329 14.158 17.644 45.826 5.567 70.299-8.073 16.36-18.467 25.332-29.492 30.035 20.548 8.541 44.353 1.137 59.735-30.035 12.344-25.015.246-57.558-5.983-71.224z" opacity="1" data-original="#cba863"></path></g></svg>