<svg xmlns="http://www.w3.org/2000/svg" version="1.1" xmlns:xlink="http://www.w3.org/1999/xlink" width="512" height="512" x="0" y="0" viewBox="0 0 496.991 496.991" style="enable-background:new 0 0 512 512" xml:space="preserve"><g><path fill="#d8ab8c" d="M303.107 287.248c-6.195-70.231-103.305-44.01-147.776-11.062-19.435 19.112-20.626 57.735-2.829 75.533 17.799 17.799 40.85 18.601 63.239 9.485 11.121-4.528 23.004-4.529 34.125 0 17.837 7.263 45.391 3.794 61.778-10.687 11.446-20.099 8.609-46.122-8.537-63.269z" opacity="1" data-original="#d8ab8c"></path><path fill="#b1705b" d="M258.896 281.046c9.861-5.39 16.733-7.829 33.582-3.173 0 0 3.104-39.018-15.519-39.018-18.622-.001-18.063 42.191-18.063 42.191z" opacity="1" data-original="#b1705b"></path><path fill="#f2d1a5" d="M319.127 90.182c0-29.083-23.576-52.659-52.659-52.659-25.172 0-42.038 15.732-51.424 38.01-4.662 11.066-13.064 19.469-24.13 24.13-4.057 1.709-7.894 3.67-11.461 5.88-4.183 7.304-16.55 25.799-16.55 35.544 0 29.083 23.576 52.659 52.659 52.659 26.282 0 60.462-18.909 79.695-33.869 14.961-19.233 23.87-43.412 23.87-69.695z" opacity="1" data-original="#f2d1a5"></path><path fill="#d8ab8c" d="M172.904 131.088c0-9.745 2.367-18.241 6.55-25.544-16.022 9.927-26.55 24.956-26.55 45.544 0 29.083 23.576 52.659 52.659 52.659 36.489 0 68.926-17.167 89.695-43.869-19.234 14.96-43.413 23.869-69.695 23.869-29.083 0-52.659-23.577-52.659-52.659zM328.141 212.187a52.393 52.393 0 0 0-25.864 6.795c-9.56 9.56-16.795 26.461-16.795 35.864 0 25.172 15.732 42.038 38.01 51.424 11.066 4.662 19.469 13.064 24.13 24.13 9.385 22.278 26.252 38.011 51.424 38.011 9.403 0 25.518-6.448 35.864-16.795a52.404 52.404 0 0 0 6.795-25.864c0-62.771-50.793-113.565-113.564-113.565" opacity="1" data-original="#d8ab8c"></path><path fill="#c38778" d="M296.576 255.926s21.946-9.312 27.16-43.55c-5.575 0-10.185.235-21.459 6.606-15.992 9.038-26.795 26.185-26.795 45.864 0 25.172 15.732 42.038 38.01 51.424 11.066 4.662 19.469 13.064 24.13 24.13 9.385 22.278 26.252 38.011 51.424 38.011 19.68 0 36.826-10.803 45.864-26.795a52.404 52.404 0 0 1-25.864 6.795c-25.172 0-42.039-15.733-51.424-38.011-4.661-11.065-13.064-19.468-24.13-24.13-18.834-7.935-32.99-21.217-36.916-40.344" opacity="1" data-original="#c38778"></path><path fill="#d8ab8c" d="M274.151 255.41c4.124-4.202 9.091-7.569 14.755-9.955 22.278-9.385 38.011-26.252 38.011-51.424 0-29.083-23.576-52.659-52.659-52.659-26.282 0-50.462 8.909-69.695 23.869-14.96 19.234-33.869 45.082-33.869 79.695 0 22.329 23.576 52.659 52.659 52.659 9.746 0 28.241-12.367 35.544-16.55 2.21-3.567 4.171-7.403 5.88-11.46 2.274-5.401 5.441-10.168 9.374-14.175z" opacity="1" data-original="#d8ab8c"></path><path fill="#c38778" d="M180.693 234.937c0-26.282 8.909-50.462 23.869-69.695-26.702 20.77-43.869 53.207-43.869 89.695 0 29.083 23.576 52.659 52.659 52.659 20.588 0 35.617-10.528 45.544-26.55-7.303 4.183-15.799 6.55-25.544 6.55-29.083 0-52.659-23.577-52.659-52.659z" opacity="1" data-original="#c38778"></path><path fill="#c38778" d="M259.867 351.204c-11.12-4.528-23.003-4.528-34.125 0-22.389 9.116-45.44 8.314-63.239-9.485a52.922 52.922 0 0 1-5.945-7.081c25.296-8.08 45.248-52.775-1.226-58.452a114.7 114.7 0 0 0-12.829 11.062c-20.565 20.565-20.565 53.907 0 74.471 17.799 17.799 40.85 18.601 63.239 9.485 11.121-4.528 23.004-4.529 34.125 0 22.39 9.117 45.441 8.315 63.24-9.485a52.684 52.684 0 0 0 8.537-11.202c-15.687 8.907-33.941 7.95-51.777.687z" opacity="1" data-original="#c38778"></path><path fill="#f2d1a5" d="M274.154 434.851c22.278-9.385 38.011-26.252 38.011-51.424 0-29.083-23.576-52.659-52.659-52.659-26.282 0-50.462 8.909-69.695 23.869-14.96 19.234-33.869 40.573-33.869 69.695s24.752 62.659 62.659 62.659c9.745 0 25.544-16.55 25.544-16.55 2.21-3.567 4.17-7.404 5.88-11.46 4.661-11.066 13.064-19.469 24.129-24.13z" opacity="1" data-original="#f2d1a5"></path><path fill="#d8ab8c" d="M165.941 424.332c0-26.282 8.909-50.462 23.869-69.695-26.702 20.77-43.869 53.207-43.869 89.695 0 29.083 23.576 52.659 52.659 52.659 20.588 0 35.617-10.528 45.544-26.55-7.304 4.183-15.799 6.55-25.544 6.55-29.083 0-52.659-23.576-52.659-52.659z" opacity="1" data-original="#d8ab8c"></path><path fill="#f2d1a5" d="M437.968 15.414C420.361-2.192 393.395-4.71 373.094 7.831c-9.401 19.616-9.729 51.319-1.788 70.822 4.528 11.122 4.528 23.004 0 34.125-9.117 22.389-5.029 48.285 5.274 56.325 16.853 13.15 52.104 14.415 72.5-5.981 32.895-44.466 29.193-107.402-11.112-147.708z" opacity="1" data-original="#f2d1a5"></path><path fill="#d8ab8c" d="M386.581 159.103c-10.303-8.039-14.391-23.935-5.274-46.325 4.528-11.12 4.528-23.003 0-34.125-7.941-19.503-17.613-51.206-8.212-70.822a52.744 52.744 0 0 0-9.597 7.583c-17.799 17.799-18.601 40.85-9.485 63.239 4.528 11.122 4.528 23.004 0 34.125-9.116 22.389-8.315 45.441 9.485 63.24 20.565 20.565 53.906 20.565 74.471 0a114.654 114.654 0 0 0 11.113-12.897c-19.945 12.597-45.648 9.132-62.501-4.018z" opacity="1" data-original="#d8ab8c"></path><path fill="#f2d1a5" d="M153.948 217.252c-11.065-4.662-19.468-13.064-24.13-24.13-9.385-22.278-26.252-38.01-51.424-38.01a52.393 52.393 0 0 0-25.864 6.795c-4.319 7.641-14.335 15.902-14.335 36.489 0 64.513 58.334 112.94 121.105 112.94 9.403 0 18.223-12.476 25.864-16.795a52.393 52.393 0 0 0 6.795-25.864c0-25.173-15.733-42.04-38.011-51.425z" opacity="1" data-original="#f2d1a5"></path><path fill="#d8ab8c" d="M45.735 187.77a52.393 52.393 0 0 1 6.795-25.864c-15.992 9.038-26.795 26.185-26.795 45.864 0 62.771 50.793 113.564 113.564 113.564 19.68 0 36.826-10.803 45.864-26.795a52.404 52.404 0 0 1-25.864 6.795c-62.77.001-113.564-50.793-113.564-113.564z" opacity="1" data-original="#d8ab8c"></path><g fill="#b1705b"><path d="M387.703 95.716c0-16.934-14.742-24.78-33.691-17.062 3.195 7.847 3.195 26.279 0 34.125 18.95 7.716 33.691-.129 33.691-17.063zM215.044 75.533c-3.296 7.824-14.43 20.044-24.13 24.13 7.944 18.856 23.914 23.732 35.888 11.758s7.098-27.946-11.758-35.888zM129.819 193.123l-.001-.001c-18.855 7.944-23.732 23.914-11.758 35.888s27.946 7.098 35.888-11.758c-9.698-4.086-20.833-16.306-24.129-24.129zM238.266 423.093c-11.974 11.974-7.098 27.946 11.758 35.888 3.296-7.824 14.43-20.044 24.13-24.13-7.944-18.856-23.914-23.732-35.888-11.758zM288.905 245.455c-7.943-18.856-23.914-23.732-35.888-11.758s-7.098 27.946 11.758 35.888c2.276-5.401 5.442-9.168 9.375-13.175 4.125-4.202 9.091-8.568 14.755-10.955zM349.38 304.512c-11.974-11.974-27.946-7.098-35.888 11.758 9.7 4.087 20.834 16.307 24.13 24.13 18.856-7.944 23.732-23.914 11.758-35.888z" fill="#b1705b" opacity="1" data-original="#b1705b"></path></g></g></svg>