<svg xmlns="http://www.w3.org/2000/svg" version="1.1" xmlns:xlink="http://www.w3.org/1999/xlink" width="512" height="512" x="0" y="0" viewBox="0 0 512 512" style="enable-background:new 0 0 512 512" xml:space="preserve"><g><path fill="#bb8080" d="M511.313 158.627c-5.455 22.215-41.911 32.358-81.426 22.654s-76.161-58.372-76.161-58.372 56.4-31.778 95.915-22.075 67.127 35.578 61.672 57.793z" opacity="1" data-original="#bb8080"></path><path fill="#af6c6c" d="M495.171 123.087c.721 3.639.697 7.266-.171 10.8-5.455 22.215-41.911 32.358-81.426 22.654-21.199-5.206-41.569-21.625-55.902-35.729-2.532 1.3-3.947 2.097-3.947 2.097s36.646 48.669 76.161 58.372c39.516 9.703 75.971-.439 81.426-22.654 2.9-11.806-3.54-24.644-16.141-35.54z" opacity="1" data-original="#af6c6c"></path><path fill="#bb8080" d="M.687 158.627c5.455 22.215 41.911 32.358 81.426 22.654s76.161-58.372 76.161-58.372-56.4-31.778-95.915-22.075S-4.768 136.412.687 158.627z" opacity="1" data-original="#bb8080"></path><path fill="#af6c6c" d="M132.451 110.963c-12.759 14.601-39.897 42.117-68.549 49.153-24.619 6.045-48.047 4.385-63.534-3.097.093.537.188 1.074.319 1.607 5.455 22.215 41.911 32.358 81.426 22.654 39.516-9.703 76.161-58.372 76.161-58.372s-10.599-5.97-25.823-11.945z" opacity="1" data-original="#af6c6c"></path><path fill="#bb8080" d="M377.317 373.846c-8.422-13.794-9.176-31.02-1.126-45.034 17.442-30.368 27.712-67.573 27.712-107.774 0-102.368-66.562-185.353-148.67-185.353s-148.67 82.985-148.67 185.353c0 40.2 10.269 77.406 27.712 107.774 8.05 14.015 7.296 31.24-1.126 45.035-6.357 10.411-10.139 22.535-10.444 35.459-.954 40.454 31.555 73.548 71.793 73.548a71.674 71.674 0 0 0 22.085-3.464 125.75 125.75 0 0 1 77.3 0 71.674 71.674 0 0 0 22.085 3.464c40.238 0 72.747-33.094 71.793-73.548-.305-12.925-4.087-25.049-10.444-35.46z" opacity="1" data-original="#bb8080"></path><path fill="#af6c6c" d="M376.19 328.812c17.443-30.368 27.712-67.574 27.712-107.774 0-68.711-29.989-128.687-74.538-160.699 24.749 33.106 39.899 77.512 39.899 126.338 0 40.201-10.269 77.406-27.712 107.774-8.05 14.015-7.296 31.24 1.126 45.034 6.357 10.411 10.139 22.535 10.444 35.459.954 40.454-31.555 73.548-71.793 73.548-10.505 0-20.48-2.258-29.471-6.313-19.929-8.989-42.6-8.989-62.529 0-8.99 4.055-18.966 6.313-29.471 6.313a71.507 71.507 0 0 1-30.254-6.688c11.524 24.265 36.243 41.05 64.893 41.05a71.68 71.68 0 0 0 22.086-3.464 125.746 125.746 0 0 1 77.299 0 71.68 71.68 0 0 0 22.085 3.464c40.238 0 72.747-33.094 71.793-73.548-.305-12.924-4.087-25.048-10.444-35.459-8.421-13.795-9.175-31.02-1.125-45.035z" opacity="1" data-original="#af6c6c"></path><circle cx="172.984" cy="217.633" r="15.065" fill="#704444" opacity="1" data-original="#704444"></circle><circle cx="337.482" cy="217.633" r="15.065" fill="#704444" opacity="1" data-original="#704444"></circle><path fill="#cdbfba" d="M419.991 33.366c-18.016 18.116-43.08 28.206-69.046 27.177-12.997-.515-23.85 9.829-24.146 22.832-.33 14.517 12.539 25.977 26.872 23.651 34.092-5.534 64.499-25.399 81.112-56.873.357-.675.698-1.355 1.039-2.035 0 0 6.728-10.946-.982-16.765-7.885-5.948-14.849 2.013-14.849 2.013zM90.475 33.366c18.016 18.116 43.08 28.206 69.046 27.177 12.997-.515 23.85 9.829 24.146 22.832.33 14.517-12.539 25.977-26.872 23.651-34.092-5.534-64.499-25.399-81.112-56.873-.357-.675-.698-1.355-1.039-2.035 0 0-6.728-10.946.982-16.765 7.885-5.948 14.849 2.013 14.849 2.013z" opacity="1" data-original="#cdbfba"></path><path fill="#b9acac" d="M166.746 61.404a23.397 23.397 0 0 1 1.458 7.62c.33 14.517-12.539 25.977-26.872 23.651-18.784-3.049-36.443-10.457-51.299-21.753 17.204 19.476 40.921 31.91 66.761 36.105 14.333 2.327 27.202-9.133 26.872-23.651-.237-10.493-7.353-19.251-16.92-21.972zM434.839 31.354c-2.095-1.581-4.123-2.174-5.975-2.201-.631 1.505-1.223 2.472-1.223 2.472-.341.68-.682 1.359-1.039 2.035-16.613 31.474-47.02 51.339-81.112 56.873-7.033 1.142-13.71-1.042-18.651-5.272.768 13.606 13.126 23.99 26.832 21.765 34.092-5.534 64.499-25.399 81.112-56.873.357-.675.698-1.355 1.039-2.035 0 .001 6.728-10.945-.983-16.764z" opacity="1" data-original="#b9acac"></path><path fill="#efe2dd" d="m314.116 119.03.02-.007-25.747-78.856a123.12 123.12 0 0 0-33.156-4.55c-20.837 0-40.669 5.258-58.67 14.737l17.552 53.754a26.005 26.005 0 0 1-6.332 26.459c-17.713 17.713-17.713 46.432 0 64.145l.122.122c8.918 8.852 14.85 20.262 16.364 32.735l1.646 13.563c1.341 11.049.58 22.193-1.516 33.124a28.451 28.451 0 0 0-.482 6.523c.583 14.298 12.106 26.09 26.388 26.977 16.398 1.018 30.014-11.98 30.014-28.158 0-1.945-.197-3.844-.572-5.677-2.508-12.272-4.234-24.691-4.234-37.217v-7.157a92.76 92.76 0 0 1 27.169-65.592c12.163-12.162 15.974-29.511 11.434-44.925zM318.757 339.279c-26.728-1.013-100.321-1.013-127.049 0-37.673 1.428-68.114 32.336-69.003 70.026-.954 40.454 31.555 73.548 71.793 73.548a71.68 71.68 0 0 0 22.086-3.464 125.746 125.746 0 0 1 77.299 0 71.68 71.68 0 0 0 22.085 3.464c40.238 0 72.747-33.094 71.793-73.548-.889-37.69-31.33-68.598-69.004-70.026z" opacity="1" data-original="#efe2dd"></path><path fill="#e1d3ce" d="M346.174 345.939a70.969 70.969 0 0 1 6.948 29.005c.954 40.454-31.555 73.548-71.793 73.548-10.505 0-20.48-2.258-29.471-6.313-19.929-8.989-42.6-8.989-62.529 0-8.99 4.055-18.966 6.313-29.471 6.313a71.507 71.507 0 0 1-30.254-6.688c11.524 24.265 36.243 41.05 64.893 41.05a71.674 71.674 0 0 0 22.085-3.464 125.75 125.75 0 0 1 77.3 0 71.704 71.704 0 0 0 22.085 3.464c40.238 0 72.747-33.094 71.793-73.548-.658-27.931-17.553-52.123-41.586-63.367z" opacity="1" data-original="#e1d3ce"></path><path fill="#ff94d4" d="M267.219 454.109h-23.972c-28.416 0-51.452-23.036-51.452-51.452v-16.531c0-15.162 12.291-27.453 27.453-27.453h71.97c15.162 0 27.453 12.291 27.453 27.453v16.531c0 28.416-23.036 51.452-51.452 51.452z" opacity="1" data-original="#ff94d4"></path><path fill="#685e68" d="M282.248 399.156c0 10.195 8.264 18.459 18.459 18.459h16.014a50.357 50.357 0 0 0 1.95-13.872v-18.197c0-1.657-.158-3.276-.445-4.85h-17.519c-10.195 0-18.459 8.265-18.459 18.46z" opacity="1" data-original="#685e68"></path><path fill="#ff73c6" d="M290.64 358.679a28.165 28.165 0 0 1 4.664 15.56v14.097c0 29.293-23.747 53.039-53.039 53.039h-20.797a53.14 53.14 0 0 1-12.855-1.577c9.481 8.871 22.212 14.311 36.221 14.311h20.797c29.293 0 53.039-23.746 53.039-53.039v-14.096c.001-15.54-12.525-28.149-28.03-28.295z" opacity="1" data-original="#ff73c6"></path><path fill="#685e68" d="M282.248 399.155c0 10.195 8.264 18.459 18.459 18.459h15.318a52.964 52.964 0 0 0 2.646-16.545v-14.096c0-2.158-.25-4.257-.707-6.277h-17.257c-10.195 0-18.459 8.265-18.459 18.459zM209.759 380.696h-17.257a28.343 28.343 0 0 0-.707 6.277v14.096c0 5.78.937 11.338 2.646 16.545h15.318c10.195 0 18.459-8.264 18.459-18.459 0-10.194-8.264-18.459-18.459-18.459z" opacity="1" data-original="#685e68"></path><path fill="#554e56" d="M317.964 380.696h-17.257c-1.88 0-3.693.285-5.402.807v6.832c0 9.078-2.285 17.62-6.304 25.091a18.383 18.383 0 0 0 11.706 4.188h15.318a52.964 52.964 0 0 0 2.646-16.545v-14.096c0-2.158-.25-4.257-.707-6.277z" opacity="1" data-original="#554e56"></path></g></svg>