<svg xmlns="http://www.w3.org/2000/svg" version="1.1" xmlns:xlink="http://www.w3.org/1999/xlink" width="512" height="512" x="0" y="0" viewBox="0 0 512 512" style="enable-background:new 0 0 512 512" xml:space="preserve"><g><path fill="#cc6a4c" d="m458.613 118.62-65.23-65.23 11.292-1.253c21.485-7.053 40.473-18.992 56.463-34.982l11.748-12.537c3.987-3.987 10.45-3.987 14.437 0l9.809 8.153 11.878 11.878c3.987 3.987 3.987 10.45 0 14.437l-11.837 11.837a144.224 144.224 0 0 0-26.423 36.315l-12.856 10.227z" opacity="1" data-original="#cc6a4c"></path><path fill="#c15f4c" d="M477.963 31.939a153.245 153.245 0 0 1-27.69 21.941c-2.275 1.408-2.642 4.565-.729 6.436.361.353.721.709 1.078 1.066 7.932 7.932 14.647 16.626 20.128 25.856a143.345 143.345 0 0 0-8.621 20.687l-3.513 10.693-65.231-65.231 10.693-3.513a144.115 144.115 0 0 0 57-35.046l11.837-11.837c3.988-3.988 10.455-3.988 14.443 0l9.776 9.776z" opacity="1" data-original="#c15f4c"></path><path fill="#d87856" d="m51.1 507.748-27.231 4.028c-.979.145-1.96.219-2.936.224 0 0-2.539-8.178-6.499-12.138 0 0-6.839-11.251-5.875-17.77l-.701-23.672c12.503-84.538 61.277-162.803 121.705-223.231L280.878 84.972c34.555-34.554 82.591-49.54 124.192-29.285 5.283 2.572 16.258 7.855 16.258 7.855a112.332 112.332 0 0 1 14.728 12.404c30.082 30.081 39.389 73.066 27.932 111.137l-13.02 11.819-.997 17.874a112.104 112.104 0 0 1-13.915 16.945L274.338 395.44a398.06 398.06 0 0 1-48.283 41.133l-17.377 5.276-8.892 12.167A398.058 398.058 0 0 1 51.1 507.748z" opacity="1" data-original="#d87856"></path><g fill="#cc6a4c"><path d="M421.581 63.73c-39.724-14.546-86.226-5.707-118.347 26.414L139.981 253.385C78.984 314.392 39.054 393.211 26.095 478.21L20.933 512a20.83 20.83 0 0 1-14.835-6.098A20.846 20.846 0 0 1 0 491.18c0-1.01.072-2.029.227-3.049l4.028-27.227a397.986 397.986 0 0 1 98.555-208.777l16.833-1.203 4.658-20.995 123.107-123.106 14.795-4.536 7.055-17.314 9.024-9.024c39.014-39.014 99.753-43.093 143.299-12.219z" fill="#cc6a4c" opacity="1" data-original="#cc6a4c"></path><path d="m315.73 131.433-37.658-37.65c-6.696 8.041-12.931 16.449-20.384 23.318l36.193 36.192a15.415 15.415 0 0 0 10.93 4.533c3.946 0 7.902-1.514 10.92-4.533 6.036-6.036 6.036-15.823-.001-21.86zM171.422 277.048l-40.757-40.757c-7.879 6.691-15.263 13.877-22.427 21.283l41.334 41.334c3.018 3.018 6.974 4.522 10.93 4.522s7.912-1.504 10.92-4.522c6.037-6.036 6.037-15.823 0-21.86z" fill="#cc6a4c" opacity="1" data-original="#cc6a4c"></path></g><path fill="#c15f4c" d="m124.302 229.928 19.573 19.573-3.894 3.884a404.183 404.183 0 0 0-17.4 18.533l-19.779-19.779.01-.01a395.868 395.868 0 0 1 13.753-14.464zM247.371 106.838l21.847-21.847 19.57 19.57-21.846 21.847z" opacity="1" data-original="#c15f4c"></path><path fill="#cc6a4c" d="M463.988 187.084a110.215 110.215 0 0 1-14.017 29.694l-23.27-23.267c-6.037-6.037-6.037-15.824 0-21.86 3.018-3.008 6.974-4.522 10.93-4.522s7.912 1.514 10.93 4.522zM170.773 381.291l55.281 55.281a392.307 392.307 0 0 1-26.268 17.443l-50.863-50.864c-6.037-6.037-6.037-15.823 0-21.86a15.376 15.376 0 0 1 10.92-4.533 15.42 15.42 0 0 1 10.93 4.533zM314.277 240.704c6.037 6.037 6.037 15.823 0 21.85-3.018 3.018-6.974 4.533-10.93 4.533s-7.912-1.514-10.92-4.533l-50.994-50.983c-6.037-6.037-6.037-15.823 0-21.86a15.398 15.398 0 0 1 10.92-4.522c3.956 0 7.912 1.504 10.93 4.522zM90.642 374.452a7.704 7.704 0 0 1-5.463-2.263l-13.112-13.112a7.727 7.727 0 0 1 10.927-10.926l13.112 13.112a7.724 7.724 0 0 1-5.464 13.189zM237.425 300.515a7.7 7.7 0 0 1-5.463-2.263l-16.026-16.026a7.724 7.724 0 0 1 0-10.926 7.725 7.725 0 0 1 10.927 0l16.026 16.026a7.724 7.724 0 0 1-5.464 13.189zM379.108 224.392a7.708 7.708 0 0 1-5.464-2.263l-15.298-15.298a7.726 7.726 0 1 1 10.928-10.926l15.298 15.298a7.726 7.726 0 0 1-5.464 13.189zM84.815 466.235a7.704 7.704 0 0 1-5.463-2.263l-14.569-14.569a7.727 7.727 0 0 1 10.927-10.926l14.569 14.569a7.724 7.724 0 0 1 0 10.926 7.703 7.703 0 0 1-5.464 2.263zM203.188 228.398a7.704 7.704 0 0 1-5.463-2.263l-9.47-9.47a7.727 7.727 0 0 1 10.927-10.926l9.47 9.47a7.724 7.724 0 0 1 0 10.926 7.705 7.705 0 0 1-5.464 2.263zM512 391.985c0-66.283-53.733-120.015-120.016-120.015-28.944 0-55.495 10.246-76.224 27.309 0 0-12.779 14.433-18.706 22.501-14.606 19.88-19.261 43.645-19.261 70.205 0 66.283 48.675 116.059 114.958 116.059 30.284 0 55.818-8.674 76.935-27.179 4.728-4.144 14.519-12.07 14.519-12.07C501.559 447.982 512 421.202 512 391.985z" opacity="1" data-original="#cc6a4c"></path><path fill="#c15f4c" d="M484.69 468.207C462.685 494.95 429.328 512 391.984 512c-66.282 0-120.016-53.734-120.016-120.015 0-37.344 17.05-70.701 43.793-92.705-17.07 20.727-27.31 47.285-27.31 76.223 0 66.281 53.734 120.015 120.016 120.015 28.938-.001 55.496-10.241 76.223-27.311z" opacity="1" data-original="#c15f4c"></path><circle cx="391.984" cy="391.985" r="89.11" fill="#f4eabd" opacity="1" data-original="#f4eabd"></circle><circle cx="391.984" cy="391.985" r="71.597" fill="#fff6d2" opacity="1" data-original="#fff6d2"></circle></g></svg>