<svg xmlns="http://www.w3.org/2000/svg" version="1.1" xmlns:xlink="http://www.w3.org/1999/xlink" width="512" height="512" x="0" y="0" viewBox="0 0 512 512" style="enable-background:new 0 0 512 512" xml:space="preserve"><g><path fill="#a2e62e" d="M244.815 231.095a7.501 7.501 0 0 1-6.92-4.604l-45.823-109.374a7.499 7.499 0 0 1 4.02-9.815 7.501 7.501 0 0 1 9.815 4.02l45.823 109.374a7.499 7.499 0 0 1-6.915 10.399z" opacity="1" data-original="#a2e62e"></path><path fill="#fff9df" d="M197.724 447.48H10.407l69.461-86.441c12.426-15.463 35.969-15.463 48.394 0z" opacity="1" data-original="#fff9df"></path><path fill="#fff3be" d="M128.262 361.039c-10.22-12.719-27.957-14.966-40.848-6.762a31.06 31.06 0 0 1 7.547 6.762l69.461 86.441h33.301z" opacity="1" data-original="#fff3be"></path><path fill="#bbec6c" d="M511.997 163.567v-26.504l-122.665 38.632v18.118a71.776 71.776 0 0 0 4.65 25.417 71.799 71.799 0 0 1 4.65 25.417v63.802h-.975a8.325 8.325 0 0 0-8.325 8.325v17.097a8.325 8.325 0 0 0 8.325 8.325h106.014a8.325 8.325 0 0 0 8.325-8.325v-17.097a8.325 8.325 0 0 0-8.325-8.325h-.975v-85.727a96.389 96.389 0 0 1 4.65-29.577 96.376 96.376 0 0 0 4.651-29.578zM503.671 375.943a8.325 8.325 0 0 0 8.325-8.325v-17.097a8.325 8.325 0 0 0-8.325-8.325H397.657a8.325 8.325 0 0 0-8.325 8.325v17.097a8.325 8.325 0 0 0 8.325 8.325h.975v102.31h-.975a8.325 8.325 0 0 0-8.325 8.325v17.097a8.325 8.325 0 0 0 8.325 8.325h106.014a8.325 8.325 0 0 0 8.325-8.325v-17.097a8.325 8.325 0 0 0-8.325-8.325h-.975v-102.31z" opacity="1" data-original="#bbec6c"></path><path fill="#a2e62e" d="M511.997 367.617V350.52a8.325 8.325 0 0 0-8.325-8.325h-24.976a8.325 8.325 0 0 1 8.325 8.325v17.097a8.325 8.325 0 0 1-8.325 8.325.975.975 0 0 0-.975.975v100.361c0 .538.436.975.975.975a8.325 8.325 0 0 1 8.325 8.325v17.097a8.325 8.325 0 0 1-8.325 8.325h24.976a8.325 8.325 0 0 0 8.325-8.325v-17.097a8.325 8.325 0 0 0-8.325-8.325h-.975v-102.31h.975a8.326 8.326 0 0 0 8.325-8.326z" opacity="1" data-original="#a2e62e"></path><path fill="#97d729" d="M205.177 168.839c23.301 23.301 33.115 52.862 35.903 62.796.436 1.552-.99 2.978-2.542 2.542-9.934-2.788-39.495-12.602-62.796-35.903s-33.115-52.862-35.903-62.796c-.436-1.552.99-2.978 2.542-2.542 9.934 2.788 39.495 12.602 62.796 35.903z" opacity="1" data-original="#97d729"></path><path fill="#bbec6c" d="M356.025 56.438V29.934L233.36 68.565v18.118a71.776 71.776 0 0 0 4.65 25.417 71.799 71.799 0 0 1 4.65 25.417v63.802h-.975a8.325 8.325 0 0 0-8.325 8.325v17.097a8.325 8.325 0 0 0 8.325 8.325h106.014a8.325 8.325 0 0 0 8.325-8.325v-17.097a8.325 8.325 0 0 0-8.325-8.325h-.975v-85.727a96.389 96.389 0 0 1 4.65-29.577 96.364 96.364 0 0 0 4.651-29.577z" opacity="1" data-original="#bbec6c"></path><path fill="#bbec6c" d="M356.025 56.438V29.934L233.36 68.565v18.118a71.776 71.776 0 0 0 4.65 25.417 71.799 71.799 0 0 1 4.65 25.417v63.802h-.975a8.325 8.325 0 0 0-8.325 8.325v17.097a8.325 8.325 0 0 0 8.325 8.325h106.014a8.325 8.325 0 0 0 8.325-8.325v-17.097a8.325 8.325 0 0 0-8.325-8.325h-.975v-85.727a96.389 96.389 0 0 1 4.65-29.577 96.364 96.364 0 0 0 4.651-29.577z" opacity="1" data-original="#bbec6c"></path><path fill="#a2e62e" d="M351.189 86.598c3.082-9.772 4.836-19.914 4.836-30.16V29.934L233.36 68.565v17.754c0 8.685 1.41 17.348 4.525 25.455a71.68 71.68 0 0 1 3.02 10.004c8.883 3.604 18.995 5.513 29.951 5.513 11.724 0 24.096-2.231 36.245-6.434 7.175-2.483 14.648 2.911 14.648 10.504v68.983c0 .536.431.975.967.975a8.325 8.325 0 0 1 8.333 8.325v5.849a4.121 4.121 0 0 1-4.121 4.121H233.36v7.128a8.325 8.325 0 0 0 8.325 8.325h106.014a8.325 8.325 0 0 0 8.325-8.325v-17.097a8.325 8.325 0 0 0-8.325-8.325h-.975v-85.727a96.431 96.431 0 0 1 4.465-28.995z" opacity="1" data-original="#a2e62e"></path><path fill="#bbec6c" d="M347.699 268.813a8.325 8.325 0 0 0 8.325-8.325v-17.097a8.325 8.325 0 0 0-8.325-8.325H241.685a8.325 8.325 0 0 0-8.325 8.325v17.097a8.325 8.325 0 0 0 8.325 8.325h.975v102.31h-.975a8.325 8.325 0 0 0-8.325 8.325v17.097a8.325 8.325 0 0 0 8.325 8.325h106.014a8.325 8.325 0 0 0 8.325-8.325v-17.097a8.325 8.325 0 0 0-8.325-8.325h-.975v-102.31zM347.699 438.618a8.325 8.325 0 0 0 8.325-8.325v-17.097a8.325 8.325 0 0 0-8.325-8.325H241.685a8.325 8.325 0 0 0-8.325 8.325v17.097a8.325 8.325 0 0 0 8.325 8.325h.975v65.141a8.24 8.24 0 0 0 8.241 8.241h87.582a8.24 8.24 0 0 0 8.241-8.241v-65.141z" opacity="1" data-original="#bbec6c"></path><path fill="#a2e62e" d="M347.699 404.871h-24.976a8.325 8.325 0 0 1 8.325 8.325v17.097a8.325 8.325 0 0 1-8.325 8.325.975.975 0 0 0-.975.975v72.408h16.734a8.24 8.24 0 0 0 8.241-8.241v-65.141h.975a8.325 8.325 0 0 0 8.325-8.325v-17.097a8.323 8.323 0 0 0-8.324-8.326z" opacity="1" data-original="#a2e62e"></path><ellipse cx="294.692" cy="49.077" fill="#fff9df" rx="66.602" ry="41.626" transform="rotate(-30 294.686 49.09)" opacity="1" data-original="#fff9df"></ellipse><path fill="#fff3be" d="M352.371 15.776c-4.746-8.221-13.53-13.248-24.444-15.033 8.256 19.914-8.133 48.779-38.377 66.241-18.702 10.798-38.53 14.822-54.048 12.284.44 1.061.93 2.103 1.512 3.109 11.495 19.909 46.637 21.14 78.492 2.748s48.36-49.44 36.865-69.349z" opacity="1" data-original="#fff3be"></path><path fill="#fd8087" d="M174.829 512H33.301C14.909 512 0 497.091 0 478.699v-24.976a6.244 6.244 0 0 1 6.244-6.244h195.642a6.245 6.245 0 0 1 6.244 6.244v24.976c0 18.392-14.909 33.301-33.301 33.301z" opacity="1" data-original="#fd8087"></path><path fill="#fe646f" d="M174.829 447.48v31.22c0 18.392-14.909 33.301-33.301 33.301h33.301c18.392 0 33.301-14.909 33.301-33.301v-24.976a6.244 6.244 0 0 0-6.244-6.244z" opacity="1" data-original="#fe646f"></path><path fill="#97d729" d="M429.708 254.906a7.5 7.5 0 0 1-7.5-7.5v-6.244a7.5 7.5 0 0 1 15 0v6.244a7.5 7.5 0 0 1-7.5 7.5zM429.708 394.194a7.5 7.5 0 0 1-7.5-7.5v-6.244a7.5 7.5 0 0 1 15 0v6.244a7.5 7.5 0 0 1-7.5 7.5zM429.708 480.803a7.5 7.5 0 0 1-7.5-7.5v-6.244a7.5 7.5 0 0 1 15 0v6.244a7.5 7.5 0 0 1-7.5 7.5zM471.432 286.125a7.5 7.5 0 0 1-7.5-7.5v-6.244a7.5 7.5 0 0 1 15 0v6.244a7.5 7.5 0 0 1-7.5 7.5zM471.432 436.679a7.5 7.5 0 0 1-7.5-7.5v-6.244a7.5 7.5 0 0 1 15 0v6.244a7.5 7.5 0 0 1-7.5 7.5zM273.735 147.777a7.5 7.5 0 0 1-7.5-7.5v-6.244a7.5 7.5 0 0 1 15 0v6.244a7.5 7.5 0 0 1-7.5 7.5zM273.735 287.065a7.5 7.5 0 0 1-7.5-7.5v-6.244a7.5 7.5 0 0 1 15 0v6.244a7.5 7.5 0 0 1-7.5 7.5zM273.735 373.673a7.5 7.5 0 0 1-7.5-7.5v-6.244a7.5 7.5 0 0 1 15 0v6.244a7.5 7.5 0 0 1-7.5 7.5zM273.735 487.48a7.5 7.5 0 0 1-7.5-7.5v-6.244a7.5 7.5 0 0 1 15 0v6.244a7.5 7.5 0 0 1-7.5 7.5zM315.46 178.996a7.5 7.5 0 0 1-7.5-7.5v-6.244a7.5 7.5 0 0 1 15 0v6.244a7.5 7.5 0 0 1-7.5 7.5zM315.46 329.55a7.5 7.5 0 0 1-7.5-7.5v-6.244a7.5 7.5 0 0 1 15 0v6.244a7.5 7.5 0 0 1-7.5 7.5zM315.46 452.898a7.5 7.5 0 0 1-7.5-7.5v-6.244a7.5 7.5 0 0 1 15 0v6.244a7.5 7.5 0 0 1-7.5 7.5z" opacity="1" data-original="#97d729"></path><circle cx="97.821" cy="386.35" r="5.203" fill="#fff3be" opacity="1" data-original="#fff3be"></circle><circle cx="77.297" cy="410.473" r="5.203" fill="#fff3be" opacity="1" data-original="#fff3be"></circle><circle cx="104.065" cy="410.473" r="5.203" fill="#fff3be" opacity="1" data-original="#fff3be"></circle><path fill="#a2e62e" d="M507.161 193.726c3.082-9.772 4.835-19.913 4.835-30.159v-26.504l-122.665 38.632v17.753c0 8.685 1.41 17.348 4.526 25.455a71.68 71.68 0 0 1 3.02 10.004c8.883 3.604 18.995 5.513 29.951 5.513 11.724 0 24.096-2.231 36.245-6.434 7.175-2.482 14.647 2.911 14.647 10.504v68.983c0 .536.431.975.967.975a8.325 8.325 0 0 1 8.333 8.325v5.849a4.121 4.121 0 0 1-4.121 4.121h-93.568v7.128a8.325 8.325 0 0 0 8.325 8.325H503.67a8.325 8.325 0 0 0 8.325-8.325v-17.097a8.325 8.325 0 0 0-8.325-8.325h-.975v-85.727a96.475 96.475 0 0 1 4.466-28.996zM356.025 260.488v-17.097a8.325 8.325 0 0 0-8.325-8.325h-24.976a8.325 8.325 0 0 1 8.325 8.325v17.097a8.325 8.325 0 0 1-8.325 8.325.975.975 0 0 0-.975.974v100.361c0 .536.431.975.967.975a8.325 8.325 0 0 1 8.333 8.325v5.849a4.121 4.121 0 0 1-4.121 4.121H233.36v7.128a8.325 8.325 0 0 0 8.325 8.325h106.014a8.325 8.325 0 0 0 8.325-8.325v-17.097a8.325 8.325 0 0 0-8.325-8.325h-.975v-102.31h.975a8.327 8.327 0 0 0 8.326-8.326z" opacity="1" data-original="#a2e62e"></path><ellipse cx="450.664" cy="156.206" fill="#fff9df" rx="66.602" ry="41.626" transform="rotate(-30 450.652 156.225)" opacity="1" data-original="#fff9df"></ellipse><path fill="#fff3be" d="M508.343 122.905c-4.746-8.221-13.53-13.248-24.444-15.033 8.256 19.914-8.133 48.779-38.377 66.241-18.702 10.798-38.53 14.822-54.048 12.284.44 1.061.93 2.103 1.512 3.109 11.495 19.909 46.637 21.14 78.492 2.748s48.36-49.439 36.865-69.349z" opacity="1" data-original="#fff3be"></path></g></svg>