<svg xmlns="http://www.w3.org/2000/svg" version="1.1" xmlns:xlink="http://www.w3.org/1999/xlink" width="512" height="512" x="0" y="0" viewBox="0 0 682.667 682.667" style="enable-background:new 0 0 512 512" xml:space="preserve" class=""><g><defs><clipPath id="a" clipPathUnits="userSpaceOnUse"><path d="M0 512h512V0H0Z" fill="#000000" opacity="1" data-original="#000000"></path></clipPath></defs><path d="M418.006 156.71H85.055v52.723h332.951z" style="fill-opacity:1;fill-rule:nonzero;stroke:none" transform="matrix(1.33333 0 0 -1.33333 0 682.667)" fill="#fdc266" data-original="#fdc266"></path><g clip-path="url(#a)" transform="matrix(1.33333 0 0 -1.33333 0 682.667)"><path d="M0 0s-32.123 31.806-74.681 38.667c-4.993.805-6.042 7.556-1.558 9.895 13.099 6.832 33.577 14.995 54.476 13.382 4.951-.382 7.418 5.909 3.529 8.996-4.419 3.509-10.007 7.152-16.701 9.999-4.86 2.068-3.983 9.201 1.227 10.068 21.894 3.645 58.842 5.155 99.601-12.949 4.526-2.011 8.96 2.929 6.443 7.194-4.493 7.616-10.56 17.041-17.243 25.064-3.023 3.629-.069 9.09 4.63 8.613 19.981-2.032 57.993-8.341 89.25-27.83 3.358-2.093 7.707.361 7.707 4.317v7.268c0 4.314 4.891 6.825 8.382 4.29 5.276-3.833 11.967-9.328 16.736-15.468 1.994-2.568 5.816-2.683 7.907-.193 12.481 14.861 51.86 55.432 111.536 57.88 4.219.173 6.932-4.421 4.736-8.029-4.037-6.632-9.701-16.816-14.37-28.537-1.832-4.601 3.291-8.825 7.456-6.148 16.216 10.427 46.818 24.973 84.786 18.691 4.641-.769 5.978-6.801 2.145-9.527-8.321-5.919-20.06-15.734-29.551-29.317-2.657-3.804.729-8.901 5.253-7.866 13.234 3.029 35.649 5.188 59.542-5.534 4.537-2.036 3.93-8.657-.877-9.933C402.732 58.318 372.209 43.969 345.152 0Z" style="fill-opacity:1;fill-rule:nonzero;stroke:none" transform="translate(83.104 249.58)" fill="#ffd693" data-original="#ffd693" class=""></path><path d="M0 0c-17.625-4.67-48.153-19.022-75.208-62.992h-345.157s-32.119 31.805-74.681 38.672c-4.994.8-6.037 7.556-1.55 9.896 9.785 5.106 23.692 10.949 38.825 12.904 5.115.669 10.372.881 15.649.477 2.775-.213 4.771 1.661 5.298 3.909.415 1.753-.061 3.728-1.773 5.085-4.416 3.505-10.007 7.152-16.703 9.997-4.851 2.067-3.98 9.198 1.226 10.069 21.899 3.646 58.849 5.156 99.609-12.945 4.528-2.015 8.954 2.927 6.442 7.192-4.498 7.617-10.565 17.037-17.25 25.058-3.019 3.637-.06 9.097 4.639 8.62 19.975-2.036 57.989-8.345 89.247-27.834 3.353-2.096 7.708.365 7.708 4.315v7.272c0 4.316 4.892 6.827 8.377 4.285 5.277-3.829 11.972-9.329 16.743-15.467 1.985-2.563 5.814-2.684 7.901-.193 12.479 14.86 51.86 55.437 111.54 57.888 4.214.172 6.929-4.427 4.731-8.032a203.529 203.529 0 0 1-10.15-18.851v-.01a173.352 173.352 0 0 1-4.213-9.672c-1.833-4.61 3.292-8.833 7.455-6.149a138.593 138.593 0 0 0 6.27 3.788c17.199 9.754 44.983 20.45 78.51 14.9 4.639-.77 5.976-6.807 2.147-9.532-8.316-5.915-20.055-15.73-29.546-29.313-2.664-3.809.729-8.903 5.247-7.87 13.238 3.028 35.654 5.196 59.548-5.53C5.409 7.9 4.811 1.276 0 0" style="fill-opacity:1;fill-rule:nonzero;stroke:none" transform="translate(503.465 312.568)" fill="#ffd693" data-original="#ffd693" class=""></path><path d="M0 0c-13.714-6.645-27.146-15.953-39.584-26.193h-23.094C-45.935-10.849-26.639 3.971-6.624 13.664a7.597 7.597 0 0 0 10.149-3.515C5.358 6.371 3.778 1.823 0 0" style="fill-opacity:1;fill-rule:nonzero;stroke:none" transform="translate(279.046 275.77)" fill="#fdc266" data-original="#fdc266"></path><path d="M0 0a85.954 85.954 0 0 1-10.889-22.223H-26.75C-23.125-8.792-17.26 1.691-12.53 8.6c2.371 3.454 7.101 4.335 10.555 1.964C1.489 8.194 2.37 3.464 0 0" style="fill-opacity:1;fill-rule:nonzero;stroke:none" transform="translate(164.882 271.799)" fill="#fdc266" data-original="#fdc266"></path><path d="M0 0c-17.614-4.659-48.184-18.991-75.268-63.012h-38.956c24.694 33.911 50.786 45.803 66.527 49.966 4.78 1.256 5.328 7.891.82 9.916-22.872 10.259-44.382 8.721-57.788 5.915-5.172-1.083-8.997 4.767-5.891 9.041 9.28 12.773 20.436 22.063 28.431 27.758 3.838 2.726 2.501 8.762-2.148 9.532a112.774 112.774 0 0 1-24.846 1.337c17.33 8.691 42.663 16.651 72.543 11.709 4.65-.77 5.987-6.807 2.148-9.531-8.337-5.927-20.092-15.765-29.585-29.371-2.634-3.777.799-8.833 5.288-7.807C-45.493 18.479-23.08 20.636.821 9.917 5.328 7.891 4.781 1.267 0 0" style="fill-opacity:1;fill-rule:nonzero;stroke:none" transform="translate(503.523 312.588)" fill="#fdc266" data-original="#fdc266"></path><path d="M0 0a7.597 7.597 0 0 0-4.268 13.887c1.439.974 35.683 23.738 74.783 12.633a7.597 7.597 0 0 0-4.152-14.616C34 21.101 4.548 1.507 4.254 1.309A7.558 7.558 0 0 0 0 0" style="fill-opacity:1;fill-rule:nonzero;stroke:none" transform="translate(435.962 243.188)" fill="#fdc266" data-original="#fdc266"></path><path d="M112.461 141.219H62.953v89.177h49.508zM440.108 141.219H390.6v89.177h49.508z" style="fill-opacity:1;fill-rule:nonzero;stroke:none" fill="#fe5426" data-original="#fe5426"></path><path d="M0 0a7.598 7.598 0 0 0-7.145 10.178c12.01 33.285 41.859 41.206 55.958 40.736a7.596 7.596 0 0 0 7.343-7.843c-.138-4.181-3.6-7.424-7.811-7.343-1.317.034-30.028.251-41.199-30.707A7.6 7.6 0 0 0 0 0" style="fill-opacity:1;fill-rule:nonzero;stroke:none" transform="translate(7.598 206.446)" fill="#ffd693" data-original="#ffd693" class=""></path><path d="M0 0h-390.739c-5.841 0-10.576 4.735-10.576 10.576v33.799c0 5.841 4.735 10.576 10.576 10.576H0c5.841 0 10.577-4.735 10.577-10.576V10.576C10.577 4.735 5.841 0 0 0" style="fill-opacity:1;fill-rule:nonzero;stroke:none" transform="translate(446.9 202.92)" fill="#fe7d43" data-original="#fe7d43"></path><path d="M0 0v-33.801c0-5.844-4.74-10.574-10.574-10.574h-39.473a10.57 10.57 0 0 1 10.575 10.574V0c0 5.834-4.731 10.574-10.575 10.574h39.473C-4.74 10.574 0 5.834 0 0" style="fill-opacity:1;fill-rule:nonzero;stroke:none" transform="translate(457.477 247.297)" fill="#fe6a30" data-original="#fe6a30"></path><path d="M0 0h-390.739c-5.841 0-10.576 4.735-10.576 10.576v33.798c0 5.842 4.735 10.577 10.576 10.577H0c5.841 0 10.577-4.735 10.577-10.577V10.576C10.577 4.735 5.841 0 0 0" style="fill-opacity:1;fill-rule:nonzero;stroke:none" transform="translate(446.9 113.219)" fill="#fe7d43" data-original="#fe7d43"></path><path d="M0 0v-33.801c0-5.844-4.74-10.574-10.574-10.574h-39.473a10.57 10.57 0 0 1 10.575 10.574V0a10.569 10.569 0 0 1-10.575 10.574h39.473C-4.74 10.574 0 5.845 0 0" style="fill-opacity:1;fill-rule:nonzero;stroke:none" transform="translate(457.477 157.595)" fill="#fe6a30" data-original="#fe6a30"></path><path d="M0 0c-8.979-13.096-23.293-41.643-12.253-79.786 1.199-4.144 6.559-5.226 9.235-1.844C12.098-62.526 53.887-13.274 98.886 8.529z" style="fill-opacity:1;fill-rule:nonzero;stroke:none" transform="translate(166.72 276.099)" fill="#ffd693" data-original="#ffd693" class=""></path><path d="M0 0a7.59 7.59 0 0 0-5.713-2.583 7.58 7.58 0 0 0-5.014 1.885c-12.711 11.162-33.628 24.775-39.604 28.594 5.115.668 10.372.88 15.649.476 2.775-.213 4.771 1.661 5.298 3.909C-20.42 26.184-9.076 18.07-.699 10.717 2.451 7.951 2.765 3.15 0 0" style="fill-opacity:1;fill-rule:nonzero;stroke:none" transform="translate(96.025 283.153)" fill="#fdc266" data-original="#fdc266"></path><path d="M0 0a7.598 7.598 0 0 0-7.492 6.398c-4.214 26.345-20.82 48.48-20.987 48.701a7.596 7.596 0 0 0 1.463 10.643 7.599 7.599 0 0 0 10.644-1.462c.776-1.024 19.075-25.426 23.883-55.482A7.596 7.596 0 0 0 0 0" style="fill-opacity:1;fill-rule:nonzero;stroke:none" transform="translate(321.579 219.874)" fill="#fdc266" data-original="#fdc266"></path><path d="M0 0a7.602 7.602 0 0 0-7.28 5.437c-4.932 16.614-18.449 33.433-18.585 33.601a7.598 7.598 0 0 0 1.124 10.685 7.598 7.598 0 0 0 10.684-1.125c.634-.782 15.561-19.364 21.343-38.837A7.599 7.599 0 0 0 0 0" style="fill-opacity:1;fill-rule:nonzero;stroke:none" transform="translate(354.668 228.81)" fill="#fdc266" data-original="#fdc266"></path><path d="M0 0c-9.481-9.785-26.558-28.614-35.492-45.753a7.596 7.596 0 1 0-13.472 7.02C-38.602-18.84-19.225 2.147-9.511 12.033a174.13 174.13 0 0 1-4.214-9.673c-1.833-4.609 3.292-8.833 7.455-6.148A139.152 139.152 0 0 0 0 0" style="fill-opacity:1;fill-rule:nonzero;stroke:none" transform="translate(388.44 359.85)" fill="#fdc266" data-original="#fdc266"></path><path d="M0 0h-.073l-.105.001a7.598 7.598 0 0 0 .071 15.194h.072l.105-.001a7.597 7.597 0 0 0 7.525-7.668A7.597 7.597 0 0 0 0 0" style="fill-opacity:1;fill-rule:nonzero;stroke:none" transform="translate(87.761 133.621)" fill="#fe5426" data-original="#fe5426"></path><path d="M0 0h-.104a7.597 7.597 0 1 0 0 15.193H0A7.596 7.596 0 1 0 0 0" style="fill-opacity:1;fill-rule:nonzero;stroke:none" transform="translate(87.76 222.799)" fill="#fe5426" data-original="#fe5426"></path><path d="M0 0h-.073l-.105.001a7.598 7.598 0 0 0 .07 15.194h.073l.105-.001A7.597 7.597 0 0 0 0 0" style="fill-opacity:1;fill-rule:nonzero;stroke:none" transform="translate(415.408 133.621)" fill="#fe5426" data-original="#fe5426"></path><path d="M0 0h-.105a7.596 7.596 0 1 0 0 15.193H0A7.597 7.597 0 0 0 0 0" style="fill-opacity:1;fill-rule:nonzero;stroke:none" transform="translate(415.407 222.799)" fill="#fe5426" data-original="#fe5426"></path></g></g></svg>