<svg xmlns="http://www.w3.org/2000/svg" version="1.1" xmlns:xlink="http://www.w3.org/1999/xlink" width="512" height="512" x="0" y="0" viewBox="0 0 512 512" style="enable-background:new 0 0 512 512" xml:space="preserve"><g><path fill="#daf1f4" d="M54.729 486.602C54.729 500.629 66.1 512 80.127 512h162.516c14.027 0 25.398-11.371 25.398-25.398v-5.508L144.898 451.31l-90.169 29.784z" opacity="1" data-original="#daf1f4"></path><path fill="#ecf9f9" d="M268.039 211.77c0-24.465-6.006-48.556-17.49-70.159l-17.354-32.644a91.67 91.67 0 0 1-10.727-43.031V39.374h-122.17v26.562a91.664 91.664 0 0 1-10.727 43.031l-17.354 32.644a149.465 149.465 0 0 0-17.49 70.159v20.948h213.311V211.77z" opacity="1" data-original="#ecf9f9"></path><path fill="#b9e4ef" d="M160.75 481.095c-14.392 6.614-30.408 10.302-47.285 10.302H55.18C57.422 503.131 67.738 512 80.126 512h162.516c14.027 0 25.398-11.371 25.398-25.398v-5.508H160.75z" opacity="1" data-original="#b9e4ef"></path><path fill="#ecf9f9" d="M268.039 211.77c0-24.465-6.006-48.556-17.49-70.159l-17.354-32.644a91.67 91.67 0 0 1-10.727-43.031V39.374l-61.085-11.286-61.085 11.286v26.562a91.664 91.664 0 0 1-10.727 43.031l-17.354 32.644a149.465 149.465 0 0 0-17.49 70.159v20.948L165.405 256l102.635-23.282V211.77z" opacity="1" data-original="#ecf9f9"></path><path fill="#daf1f4" d="m250.55 141.611-17.354-32.644a91.67 91.67 0 0 1-10.727-43.031V39.374h-41.207v5.958a91.664 91.664 0 0 0 10.727 43.031l17.354 32.644a149.464 149.464 0 0 1 17.489 70.159v41.552h41.207V211.77c0-24.465-6.005-48.556-17.489-70.159zM307.336 479.391l.974 28.597a4.154 4.154 0 0 0 4.151 4.012H443.9a4.153 4.153 0 0 0 4.151-4.012l.974-28.597-70.844-30.698z" opacity="1" data-original="#daf1f4"></path><path fill="#ecf9f9" d="M457.269 237.268a4.154 4.154 0 0 0-4.151-4.295H303.242a4.154 4.154 0 0 0-4.151 4.295l2.757 80.967 76.332 30.978 76.332-30.978z" opacity="1" data-original="#ecf9f9"></path><path fill="#b9e4ef" d="M399.894 479.391c-6.202 7.353-15.481 12.006-25.816 12.006h-66.333l.565 16.592a4.153 4.153 0 0 0 4.151 4.012H443.9a4.153 4.153 0 0 0 4.151-4.012l.974-28.597h-49.131z" opacity="1" data-original="#b9e4ef"></path><path fill="#daf1f4" d="M453.118 232.974h-37.612l-2.202 64.658-.702 20.604h41.909l2.757-80.967a4.152 4.152 0 0 0-4.15-4.295z" opacity="1" data-original="#daf1f4"></path><path fill="#ffffff" d="M82.398 197.929a7.726 7.726 0 0 1-7.617-9.079 131.415 131.415 0 0 1 13.354-38.777l17.354-32.644a109.647 109.647 0 0 0 7.75-18.515 7.73 7.73 0 0 1 9.69-5.051 7.728 7.728 0 0 1 5.051 9.69 125.128 125.128 0 0 1-8.846 21.13l-17.354 32.644a116.005 116.005 0 0 0-11.785 34.224 7.727 7.727 0 0 1-7.597 6.378zM326.736 300.207a7.726 7.726 0 0 1-7.717-7.463l-1.149-33.752a7.726 7.726 0 1 1 15.444-.526l1.149 33.752a7.726 7.726 0 0 1-7.459 7.985c-.09.002-.18.004-.268.004z" opacity="1" data-original="#ffffff"></path><path fill="#b9e4ef" d="M227.944 58.209h-45.772a91.69 91.69 0 0 0 3.578 15.453h42.194a7.727 7.727 0 0 0 0-15.453z" opacity="1" data-original="#b9e4ef"></path><path fill="#e2f4f9" d="M94.824 58.209a7.726 7.726 0 1 0 0 15.452h90.926a91.668 91.668 0 0 1-3.578-15.453H94.824z" opacity="1" data-original="#e2f4f9"></path><path fill="#c6c1c8" d="M224.007 0H98.761a3.937 3.937 0 0 0-3.937 3.937v31.499a3.937 3.937 0 0 0 3.937 3.937h125.245a3.937 3.937 0 0 0 3.937-3.937V3.937A3.936 3.936 0 0 0 224.007 0z" opacity="1" data-original="#c6c1c8"></path><path fill="#afaab4" d="M224.007 0h-37.27v7.812c0 8.897-7.212 16.109-16.109 16.109H94.824v11.515a3.937 3.937 0 0 0 3.937 3.937h125.245a3.937 3.937 0 0 0 3.937-3.937V3.937A3.936 3.936 0 0 0 224.007 0z" opacity="1" data-original="#afaab4"></path><path fill="#fff9e2" d="M54.729 232.718H268.04v248.377H54.729z" opacity="1" data-original="#fff9e2"></path><path fill="#fbf4c6" d="M226.832 232.718v145.311c0 45.734-27.081 85.143-66.082 103.066h107.29V232.718z" opacity="1" data-original="#fbf4c6"></path><path fill="#fff9e2" d="m301.848 318.235 5.488 161.156h141.688l5.488-161.156z" opacity="1" data-original="#fff9e2"></path><path fill="#fbf4c6" d="m412.603 318.235-4.786 140.552a33.635 33.635 0 0 1-7.922 20.604h49.13l5.488-161.156z" opacity="1" data-original="#fbf4c6"></path></g></svg>