<svg xmlns="http://www.w3.org/2000/svg" version="1.1" xmlns:xlink="http://www.w3.org/1999/xlink" width="512" height="512" x="0" y="0" viewBox="0 0 512 512" style="enable-background:new 0 0 512 512" xml:space="preserve" class=""><g><path fill="#fddd45" d="M239.229 297.721c10.481 0 16.703-11.715 10.82-20.389-23.453-34.579-75.43-98.758-124.976-74.92-41.228 19.836-77.647 51.568-99.448 72.909-8.369 8.192-2.569 22.4 9.142 22.4z" opacity="1" data-original="#fddd45" class=""></path><path fill="#fdc83a" d="M239.23 297.72h-44.221c10.477 0 16.699-11.712 10.815-20.386-16.263-23.991-46.254-62.212-79.644-75.43 49.217-22.378 100.59 41.102 123.873 75.43 5.876 8.674-.346 20.386-10.823 20.386z" opacity="1" data-original="#fdc83a" class=""></path><path fill="#dc7f69" d="M333.702 444.305c-6.489-5.159-9.394-13.58-7.97-21.746 5.902-33.841 7.136-69.272 5.869-102.702H18.592c-1.267 33.43-.033 68.861 5.869 102.702 1.424 8.166-1.481 16.587-7.97 21.746-6.377 5.07-13.653 14.129-16.327 29.88-1.177 6.929 4.166 13.259 11.194 13.259H175.33l81.54-5.151 81.965 5.151c7.028 0 12.371-6.33 11.194-13.259-2.674-15.751-9.95-24.81-16.327-29.88z" opacity="1" data-original="#dc7f69" class=""></path><path fill="#d46a50" d="M350.03 474.185c-2.675-15.751-9.95-24.81-16.327-29.88-6.489-5.159-9.394-13.58-7.97-21.746 5.902-33.841 7.136-69.272 5.869-102.702H18.592c-.588 15.511-.628 31.453.078 47.466h124.535c.792 18.635 2.598 37.375 5.786 55.651 1.415 8.114-1.472 16.481-7.919 21.607-6.336 5.037-13.565 14.038-16.223 29.688-1.169 6.885 4.139 13.174 11.122 13.174h39.36l81.54-5.151 81.965 5.151c7.027 0 12.37-6.33 11.194-13.258z" opacity="1" data-original="#d46a50" class=""></path><path fill="#e39382" d="M338.162 336.031H12.03c-6.268 0-11.349-5.081-11.349-11.349v-29.648c0-6.268 5.081-11.349 11.349-11.349h326.132c6.268 0 11.349 5.081 11.349 11.349v29.648c.001 6.267-5.081 11.349-11.349 11.349z" opacity="1" data-original="#e39382" class=""></path><path fill="#dc7f69" d="M349.51 295.034v29.648c0 6.264-5.079 11.353-11.342 11.353H138.632c.258-18.049 1.308-35.685 2.833-52.354h196.703c6.263 0 11.342 5.089 11.342 11.353z" opacity="1" data-original="#dc7f69" class=""></path><path fill="#e39382" d="M349.507 295.035v29.646c0 6.267-5.072 11.349-11.349 11.349h-39.495c6.267 0 11.349-5.082 11.349-11.349v-29.646c0-6.267-5.082-11.349-11.349-11.349h39.495c6.276 0 11.349 5.083 11.349 11.349z" opacity="1" data-original="#e39382" class=""></path><path fill="#fddd45" d="M454.75 138.278c11.861 0 18.902-13.257 12.244-23.073-26.54-39.13-85.359-111.759-141.427-84.782-46.655 22.447-87.868 58.356-112.539 82.507-9.47 9.27-2.907 25.349 10.345 25.349z" opacity="1" data-original="#fddd45" class=""></path><path fill="#fdc83a" d="M454.751 138.276h-50.042c11.856 0 18.897-13.253 12.238-23.07-18.404-27.149-52.342-70.402-90.128-85.359 55.695-25.324 113.831 46.512 140.179 85.359 6.65 9.817-.391 23.07-12.247 23.07z" opacity="1" data-original="#fdc83a" class=""></path><path fill="#e39382" d="M487.695 422.974c20.781-119.152-16.662-258.151-16.662-258.151H205.012s-37.443 138.998-16.662 258.151c1.415 8.114-1.472 16.481-7.919 21.607-6.336 5.037-13.565 14.038-16.223 29.688-1.169 6.884 4.139 13.174 11.122 13.174h325.384c6.983 0 12.292-6.289 11.122-13.174-2.658-15.65-9.887-24.651-16.223-29.688-6.447-5.126-9.333-13.493-7.918-21.607z" opacity="1" data-original="#e39382" class=""></path><path fill="#dc7f69" d="M205.012 164.824s-4.764 17.711-9.95 45.872h246.676c9.351 50.791 20.072 135.635 6.707 212.281-1.412 8.109 1.471 16.483 7.923 21.602 6.335 5.04 13.561 14.042 16.219 29.691 1.177 6.884-4.138 13.169-11.12 13.169h39.252c6.982 0 12.287-6.286 11.12-13.169-2.657-15.65-9.884-24.651-16.229-29.691-6.442-5.119-9.335-13.493-7.913-21.602 20.778-119.159-16.66-258.155-16.66-258.155z" opacity="1" data-original="#dc7f69" class=""></path><path fill="#e9a999" d="M481.406 177.54H194.638c-6.228 0-11.277-5.049-11.277-11.277v-29.459c0-6.228 5.049-11.277 11.277-11.277h286.768c6.228 0 11.277 5.049 11.277 11.277v29.459c0 6.229-5.049 11.277-11.277 11.277z" opacity="1" data-original="#e9a999" class=""></path><path fill="#e39382" d="M492.678 136.807v29.456c0 6.227-5.04 11.277-11.277 11.277h-39.243c6.227 0 11.277-5.05 11.277-11.277v-29.456c0-6.227-5.05-11.277-11.277-11.277h39.243c6.237.001 11.277 5.051 11.277 11.277z" opacity="1" data-original="#e39382" class=""></path><path fill="#fddd45" d="M253.231 414.975a7.729 7.729 0 0 1-5.464-13.191l132.946-132.946a7.73 7.73 0 0 1 10.928 0 7.729 7.729 0 0 1 0 10.928L258.695 412.712a7.708 7.708 0 0 1-5.464 2.263z" opacity="1" data-original="#fddd45" class=""></path><path fill="#fdc83a" d="M351.924 377.672c.64-1.29.64-2.814 0-4.104-5.694-11.481-17.531-19.374-31.215-19.374s-25.522 7.893-31.215 19.374a4.626 4.626 0 0 0 0 4.104c5.694 11.481 17.531 19.374 31.215 19.374s25.522-7.893 31.215-19.374z" opacity="1" data-original="#fdc83a" class=""></path><path fill="#fdc83a" d="M282.844 308.591a4.626 4.626 0 0 1 4.104 0c11.481 5.694 19.374 17.531 19.374 31.215s-7.894 25.522-19.374 31.215c-1.29.64-2.814.64-4.104 0-11.481-5.694-19.374-17.531-19.374-31.215s7.893-25.521 19.374-31.215zM399.919 329.677c.64-1.29.64-2.814 0-4.104-5.694-11.481-17.531-19.374-31.215-19.374s-25.522 7.894-31.215 19.374a4.626 4.626 0 0 0 0 4.104c5.694 11.481 17.531 19.374 31.215 19.374s25.521-7.893 31.215-19.374z" opacity="1" data-original="#fdc83a" class=""></path><path fill="#fdc83a" d="M330.839 260.596a4.626 4.626 0 0 1 4.104 0c11.481 5.694 19.374 17.531 19.374 31.215s-7.894 25.522-19.374 31.215c-1.29.64-2.814.64-4.104 0-11.481-5.694-19.374-17.531-19.374-31.215s7.893-25.521 19.374-31.215zM418.086 239.493a4.631 4.631 0 0 1 2.902 2.902c4.092 12.144 1.303 26.096-8.373 35.772s-23.628 12.465-35.772 8.373a4.631 4.631 0 0 1-2.902-2.902c-4.092-12.144-1.303-26.096 8.373-35.772s23.627-12.466 35.772-8.373z" opacity="1" data-original="#fdc83a" class=""></path><path fill="#d46a50" d="M503.007 452.311h-81.158c-11.476 0-20.81-9.344-20.81-20.82 0-11.466 9.333-20.81 20.81-20.81a7.73 7.73 0 0 1 7.726 7.726 7.722 7.722 0 0 1-7.726 7.726 5.366 5.366 0 0 0-5.357 5.357c0 2.957 2.4 5.367 5.357 5.367h67.673a21.647 21.647 0 0 0 6.089 7.726 40.368 40.368 0 0 1 7.396 7.728zM365.664 452.308h-44.955a7.726 7.726 0 1 1 0-15.452h44.955c4.268 0 7.726 3.459 7.726 7.726s-3.458 7.726-7.726 7.726z" opacity="1" data-original="#d46a50" class=""></path><path fill="#fdc83a" d="M336.159 68.614c-4.268 0-7.726-3.423-7.726-7.69v-.071a7.725 7.725 0 0 1 7.726-7.726c4.268 0 7.726 3.459 7.726 7.726s-3.458 7.761-7.726 7.761zM356.799 83.567c-4.268 0-7.726-3.424-7.726-7.691v-.071a7.726 7.726 0 1 1 15.452 0c0 4.267-3.459 7.762-7.726 7.762zM280.579 105.264c-4.268 0-7.726-3.424-7.726-7.691v-.071a7.726 7.726 0 1 1 15.452 0c0 4.267-3.458 7.762-7.726 7.762z" opacity="1" data-original="#fdc83a" class=""></path></g></svg>