<svg xmlns="http://www.w3.org/2000/svg" version="1.1" xmlns:xlink="http://www.w3.org/1999/xlink" width="512" height="512" x="0" y="0" viewBox="0 0 682.667 682.667" style="enable-background:new 0 0 512 512" xml:space="preserve" class=""><g><defs><clipPath id="a" clipPathUnits="userSpaceOnUse"><path d="M0 512h512V0H0Z" fill="#000000" opacity="1" data-original="#000000"></path></clipPath></defs><g clip-path="url(#a)" transform="matrix(1.33333 0 0 -1.33333 0 682.667)"><path d="M0 0c0 10.429-5.415 19.588-13.584 24.831-2.98 1.912-4.015 5.83-2.208 8.876a29.348 29.348 0 0 1 4.105 15.015c0 13.149-8.607 24.281-20.494 28.085-2.857.914-4.77 3.522-4.749 6.522v.203c0 16.288-13.204 29.493-29.493 29.493-16.288 0-29.493-13.205-29.493-29.493l.001-.203c.021-3-1.893-5.608-4.75-6.522-11.887-3.804-20.494-14.936-20.494-28.085a29.34 29.34 0 0 1 4.106-15.015c1.806-3.046.772-6.964-2.208-8.876-8.17-5.243-13.585-14.402-13.585-24.831 0-12.68 8.005-23.486 19.235-27.652 2.3-.854 3.992-2.836 4.353-5.263 3.102-20.875 21.098-36.889 42.835-36.889 21.738 0 39.733 16.014 42.836 36.889.361 2.427 2.052 4.409 4.353 5.263C-8.004-23.486 0-12.68 0 0" style="fill-opacity:1;fill-rule:nonzero;stroke:none" transform="translate(364.965 344.187)" fill="#1ca56f" data-original="#1ca56f"></path><path d="M0 0c0-12.68-8-23.48-19.24-27.65-2.3-.85-3.99-2.83-4.35-5.26-3.1-20.87-21.1-36.89-42.83-36.89-5.03 0-9.85.85-14.34 2.43 14.92 5.23 26.12 18.41 28.5 34.46.36 2.43 2.05 4.41 4.35 5.26C-36.67-23.48-28.67-12.68-28.67 0c0 10.43-5.42 19.59-13.59 24.84-2.98 1.91-4.01 5.83-2.2 8.87 2.6 4.4 4.1 9.53 4.1 15.02 0 13.15-8.6 24.28-20.49 28.08-2.86.92-4.77 3.52-4.75 6.52v.21c0 11.09-6.12 20.74-15.16 25.77 4.24 2.37 9.13 3.72 14.34 3.72 16.29 0 29.49-13.2 29.49-29.49v-.21c-.02-3 1.89-5.6 4.75-6.52 11.89-3.8 20.49-14.93 20.49-28.08 0-5.49-1.5-10.62-4.1-15.02-1.81-3.04-.78-6.96 2.2-8.87C-5.42 19.59 0 10.43 0 0" style="fill-opacity:1;fill-rule:nonzero;stroke:none" transform="translate(364.966 344.182)" fill="#148f5f" data-original="#148f5f"></path><path d="M0 0c0 10.429-5.415 19.588-13.584 24.831-2.98 1.912-4.015 5.83-2.208 8.876a29.348 29.348 0 0 1 4.105 15.015c0 13.149-8.607 24.281-20.494 28.085-2.857.914-4.77 3.522-4.749 6.522v.203c0 16.288-13.204 29.493-29.493 29.493-16.288 0-29.493-13.205-29.493-29.493l.001-.203c.021-3-1.893-5.608-4.75-6.522-11.887-3.804-20.494-14.936-20.494-28.085a29.34 29.34 0 0 1 4.106-15.015c1.806-3.046.772-6.964-2.208-8.876-8.17-5.243-13.585-14.402-13.585-24.831 0-12.68 8.005-23.486 19.235-27.652 2.3-.854 3.992-2.836 4.353-5.263 3.102-20.875 21.098-36.889 42.835-36.889 21.738 0 39.733 16.014 42.836 36.889.361 2.427 2.052 4.409 4.353 5.263C-8.004-23.486 0-12.68 0 0Z" style="stroke-width:15;stroke-linecap:round;stroke-linejoin:round;stroke-miterlimit:10;stroke-dasharray:none;stroke-opacity:1" transform="translate(364.965 344.187)" fill="none" stroke="#000000" stroke-width="15" stroke-linecap="round" stroke-linejoin="round" stroke-miterlimit="10" stroke-dasharray="none" stroke-opacity="" data-original="#000000" class=""></path><path d="M0 0c0-42.799-6.273-77.494-14.011-77.494-7.738 0-14.011 34.695-14.011 77.494s6.273 77.494 14.011 77.494C-6.273 77.494 0 42.799 0 0" style="fill-opacity:1;fill-rule:nonzero;stroke:none" transform="translate(312.554 332.552)" fill="#dbf2b4" data-original="#dbf2b4" class=""></path><path d="M0 0c0-42.799-6.273-77.494-14.011-77.494-7.738 0-14.011 34.695-14.011 77.494s6.273 77.494 14.011 77.494C-6.273 77.494 0 42.799 0 0Z" style="stroke-width:15;stroke-linecap:round;stroke-linejoin:round;stroke-miterlimit:10;stroke-dasharray:none;stroke-opacity:1" transform="translate(312.554 332.552)" fill="none" stroke="#000000" stroke-width="15" stroke-linecap="round" stroke-linejoin="round" stroke-miterlimit="10" stroke-dasharray="none" stroke-opacity="" data-original="#000000" class=""></path><path d="M0 0c-3.298 9.175-10.958 15.52-19.804 17.548-3.226.74-5.375 3.861-4.749 7.111a27.43 27.43 0 0 1-1.136 14.508C-29.847 50.735-40.94 57.807-52.6 57.394c-2.803-.1-5.311 1.589-6.241 4.235l-.064.179c-5.151 14.33-20.943 21.771-35.273 16.62-14.33-5.151-21.771-20.944-16.619-35.274l.065-.178c.966-2.633.108-5.532-2.117-7.24-9.254-7.105-13.306-19.62-9.148-31.188a27.434 27.434 0 0 1 8.361-11.911c2.552-2.108 2.881-5.883.865-8.507-5.53-7.196-7.397-16.966-4.1-26.14 4.011-11.156 14.47-18.131 25.667-18.245 2.293-.023 4.409-1.232 5.493-3.253 9.331-17.383 30.227-25.781 49.35-18.907 19.124 6.874 29.891 26.654 26.019 45.999-.45 2.249.411 4.528 2.165 6.006C.385-23.193 4.01-11.155 0 0" style="fill-opacity:1;fill-rule:nonzero;stroke:none" transform="translate(146.972 387.376)" fill="#1ca56f" data-original="#1ca56f"></path><path d="M0 0c4.01-11.155.387-23.187-8.183-30.409-1.754-1.475-2.615-3.752-2.163-6.004 3.873-19.34-6.897-39.126-26.013-45.998a40.309 40.309 0 0 0-13.385-2.397c11.473 9.32 17.158 24.456 14.176 39.329-.452 2.252.409 4.528 2.163 6.003 8.57 7.223 12.193 19.254 8.182 30.41-3.298 9.175-10.963 15.52-19.81 17.555-3.226.738-5.372 3.861-4.741 7.107a27.504 27.504 0 0 1-1.143 14.51c-4.158 11.569-15.244 18.641-26.906 18.224-2.806-.095-5.309 1.588-6.24 4.234l-.067.185c-3.507 9.756-11.942 16.31-21.486 17.876a27.396 27.396 0 0 0 11.439 7.808c14.331 5.151 30.118-2.287 35.27-16.618l.066-.185c.931-2.645 3.434-4.329 6.241-4.234 11.662.417 22.747-6.654 26.906-18.223a27.505 27.505 0 0 0 1.142-14.51c-.631-3.247 1.515-6.37 4.741-7.108C-10.963 15.52-3.298 9.176 0 0" style="fill-opacity:1;fill-rule:nonzero;stroke:none" transform="translate(146.974 387.372)" fill="#148f5f" data-original="#148f5f"></path><path d="M0 0c-3.298 9.175-10.958 15.52-19.804 17.548-3.226.74-5.375 3.861-4.749 7.111a27.43 27.43 0 0 1-1.136 14.508C-29.847 50.735-40.94 57.807-52.6 57.394c-2.803-.1-5.311 1.589-6.241 4.235l-.064.179c-5.151 14.33-20.943 21.771-35.273 16.62-14.33-5.151-21.771-20.944-16.619-35.274l.065-.178c.966-2.633.108-5.532-2.117-7.24-9.254-7.105-13.306-19.62-9.148-31.188a27.434 27.434 0 0 1 8.361-11.911c2.552-2.108 2.881-5.883.865-8.507-5.53-7.196-7.397-16.966-4.1-26.14 4.011-11.156 14.47-18.131 25.667-18.245 2.293-.023 4.409-1.232 5.493-3.253 9.331-17.383 30.227-25.781 49.35-18.907 19.124 6.874 29.891 26.654 26.019 45.999-.45 2.249.411 4.528 2.165 6.006C.385-23.193 4.01-11.155 0 0Z" style="stroke-width:15;stroke-linecap:round;stroke-linejoin:round;stroke-miterlimit:10;stroke-dasharray:none;stroke-opacity:1" transform="translate(146.972 387.376)" fill="none" stroke="#000000" stroke-width="15" stroke-linecap="round" stroke-linejoin="round" stroke-miterlimit="10" stroke-dasharray="none" stroke-opacity="" data-original="#000000" class=""></path><path d="M0 0c13.534-37.652 18.988-70.159 12.18-72.606-6.807-2.447-23.298 26.092-36.832 63.745-13.535 37.652-18.988 70.158-12.181 72.605C-30.025 66.191-13.535 37.652 0 0" style="fill-opacity:1;fill-rule:nonzero;stroke:none" transform="translate(104.543 360.566)" fill="#dbf2b4" data-original="#dbf2b4" class=""></path><path d="M0 0c13.534-37.652 18.988-70.159 12.18-72.606-6.807-2.447-23.298 26.092-36.832 63.745-13.535 37.652-18.988 70.158-12.181 72.605C-30.025 66.191-13.535 37.652 0 0Z" style="stroke-width:15;stroke-linecap:round;stroke-linejoin:round;stroke-miterlimit:10;stroke-dasharray:none;stroke-opacity:1" transform="translate(104.543 360.566)" fill="none" stroke="#000000" stroke-width="15" stroke-linecap="round" stroke-linejoin="round" stroke-miterlimit="10" stroke-dasharray="none" stroke-opacity="" data-original="#000000" class=""></path><path d="M0 0c-3.664-10.067-12.609-16.68-22.56-17.853-6.873 7.286-9.471 18.111-5.807 28.178 3.664 10.066 12.609 16.679 22.557 17.842C1.059 20.872 3.661 10.057 0 0" style="fill-opacity:1;fill-rule:nonzero;stroke:none" transform="translate(438.193 302.772)" fill="#a3e440" data-original="#a3e440"></path><path d="M0 0c-3.664-10.067-12.609-16.68-22.56-17.853-6.873 7.286-9.471 18.111-5.807 28.178 3.664 10.066 12.609 16.679 22.557 17.842C1.059 20.872 3.661 10.057 0 0Z" style="stroke-width:15;stroke-linecap:round;stroke-linejoin:round;stroke-miterlimit:10;stroke-dasharray:none;stroke-opacity:1" transform="translate(438.193 302.772)" fill="none" stroke="#000000" stroke-width="15" stroke-linecap="round" stroke-linejoin="round" stroke-miterlimit="10" stroke-dasharray="none" stroke-opacity="" data-original="#000000" class=""></path><path d="M0 0c3.664-10.067 1.062-20.882-5.807-28.178-9.948 1.164-18.896 7.786-22.56 17.853-3.664 10.067-1.062 20.882 5.81 28.168C-12.605 16.669-3.661 10.057 0 0" style="fill-opacity:1;fill-rule:nonzero;stroke:none" transform="translate(411.14 313.096)" fill="#2db181" data-original="#2db181"></path><path d="M0 0c3.664-10.067 1.062-20.882-5.807-28.178-9.948 1.164-18.896 7.786-22.56 17.853-3.664 10.067-1.062 20.882 5.81 28.168C-12.605 16.669-3.661 10.057 0 0Z" style="stroke-width:15;stroke-linecap:round;stroke-linejoin:round;stroke-miterlimit:10;stroke-dasharray:none;stroke-opacity:1" transform="translate(411.14 313.096)" fill="none" stroke="#000000" stroke-width="15" stroke-linecap="round" stroke-linejoin="round" stroke-miterlimit="10" stroke-dasharray="none" stroke-opacity="" data-original="#000000" class=""></path><path d="M0 0c0-32.075-26.002-58.077-58.077-58.077-32.074 0-58.076 26.002-58.076 58.077s26.002 44.332 58.076 44.332C-26.002 44.332 0 32.075 0 0" style="fill-opacity:1;fill-rule:nonzero;stroke:none" transform="translate(468.558 261.056)" fill="#f82f41" data-original="#f82f41"></path><path d="M0 0c0-32.081-26.005-58.077-58.076-58.077-4.884 0-9.622.605-14.148 1.732C-46.989-50.022-28.296-27.196-28.296 0c0 27.187-18.693 40.144-43.928 43.452 4.526.595 9.264.88 14.148.88C-26.005 44.332 0 32.071 0 0" style="fill-opacity:1;fill-rule:nonzero;stroke:none" transform="translate(468.56 261.057)" fill="#e22334" data-original="#e22334"></path><path d="M0 0c0-32.075-26.002-58.077-58.077-58.077-32.074 0-58.076 26.002-58.076 58.077s26.002 44.332 58.076 44.332C-26.002 44.332 0 32.075 0 0Z" style="stroke-width:15;stroke-linecap:round;stroke-linejoin:round;stroke-miterlimit:10;stroke-dasharray:none;stroke-opacity:1" transform="translate(468.558 261.056)" fill="none" stroke="#000000" stroke-width="15" stroke-linecap="round" stroke-linejoin="round" stroke-miterlimit="10" stroke-dasharray="none" stroke-opacity="" data-original="#000000" class=""></path><path d="M0 0c-10.151-8.518-23.823-10.069-35.208-5.171-2.856 12.055 1.056 25.258 11.207 33.775 10.15 8.518 23.822 10.069 35.198 5.164C14.043 21.704 10.141 8.509 0 0" style="fill-opacity:1;fill-rule:nonzero;stroke:none" transform="translate(442.123 394.672)" fill="#a3e440" data-original="#a3e440"></path><path d="M0 0c-10.151-8.518-23.823-10.069-35.208-5.171-2.856 12.055 1.056 25.258 11.207 33.775 10.15 8.518 23.822 10.069 35.198 5.164C14.043 21.704 10.141 8.509 0 0Z" style="stroke-width:15;stroke-linecap:round;stroke-linejoin:round;stroke-miterlimit:10;stroke-dasharray:none;stroke-opacity:1" transform="translate(442.123 394.672)" fill="none" stroke="#000000" stroke-width="15" stroke-linecap="round" stroke-linejoin="round" stroke-miterlimit="10" stroke-dasharray="none" stroke-opacity="" data-original="#000000" class=""></path><path d="M0 0c-2.301-13.05-11.777-23.026-23.647-26.593-9.936 7.399-15.427 20.027-13.125 33.077 2.3 13.05 11.776 23.026 23.644 26.58C-3.193 25.652 2.299 13.037 0 0" style="fill-opacity:1;fill-rule:nonzero;stroke:none" transform="translate(419.529 422.464)" fill="#2db181" data-original="#2db181"></path><path d="M0 0c-2.301-13.05-11.777-23.026-23.647-26.593-9.936 7.399-15.427 20.027-13.125 33.077 2.3 13.05 11.776 23.026 23.644 26.58C-3.193 25.652 2.299 13.037 0 0Z" style="stroke-width:15;stroke-linecap:round;stroke-linejoin:round;stroke-miterlimit:10;stroke-dasharray:none;stroke-opacity:1" transform="translate(419.529 422.464)" fill="none" stroke="#000000" stroke-width="15" stroke-linecap="round" stroke-linejoin="round" stroke-miterlimit="10" stroke-dasharray="none" stroke-opacity="" data-original="#000000" class=""></path><path d="M0 0c11.826 30.987-10.426 49.408-22.758 56.528-12.332 7.12-39.41 17.18-60.334-8.555-18.525-22.785-64.173-112.101-57.382-177.143.788-7.554 8.818-12.19 15.754-9.097C-64.996-111.626-10.47-27.436 0 0" style="fill-opacity:1;fill-rule:nonzero;stroke:none" transform="translate(429.5 345.419)" fill="#fca62f" data-original="#fca62f"></path><path d="M0 0c-6.945-3.097-14.974 1.539-15.754 9.096a111.088 111.088 0 0 0-.436 5.343C41.614 43.311 93.493 123.715 103.682 150.408c9.006 23.579-1.725 39.879-12.808 49.471a65.565 65.565 0 0 0 11.079-5.087c12.339-7.124 34.588-25.532 22.764-56.529C114.245 110.831 59.722 26.64 0 0" style="fill-opacity:1;fill-rule:nonzero;stroke:none" transform="translate(304.785 207.152)" fill="#f98824" data-original="#f98824"></path><path d="M0 0c11.826 30.987-10.426 49.408-22.758 56.528-12.332 7.12-39.41 17.18-60.334-8.555-18.525-22.785-64.173-112.101-57.382-177.143.788-7.554 8.818-12.19 15.754-9.097C-64.996-111.626-10.47-27.436 0 0Z" style="stroke-width:15;stroke-linecap:round;stroke-linejoin:round;stroke-miterlimit:10;stroke-dasharray:none;stroke-opacity:1" transform="translate(429.5 345.419)" fill="none" stroke="#000000" stroke-width="15" stroke-linecap="round" stroke-linejoin="round" stroke-miterlimit="10" stroke-dasharray="none" stroke-opacity="" data-original="#000000" class=""></path><path d="M0 0s10.038-13.384 46.719-34.562" style="stroke-width:15;stroke-linecap:round;stroke-linejoin:round;stroke-miterlimit:10;stroke-dasharray:none;stroke-opacity:1" transform="translate(338.775 380.17)" fill="none" stroke="#000000" stroke-width="15" stroke-linecap="round" stroke-linejoin="round" stroke-miterlimit="10" stroke-dasharray="none" stroke-opacity="" data-original="#000000" class=""></path><path d="M0 0s27.187-23.026 56.672-22.204" style="stroke-width:15;stroke-linecap:round;stroke-linejoin:round;stroke-miterlimit:10;stroke-dasharray:none;stroke-opacity:1" transform="translate(348.393 324.445)" fill="none" stroke="#000000" stroke-width="15" stroke-linecap="round" stroke-linejoin="round" stroke-miterlimit="10" stroke-dasharray="none" stroke-opacity="" data-original="#000000" class=""></path><path d="m0 0 10.435-6.024" style="stroke-width:15;stroke-linecap:round;stroke-linejoin:round;stroke-miterlimit:10;stroke-dasharray:none;stroke-opacity:1" transform="translate(330.676 290.826)" fill="none" stroke="#000000" stroke-width="15" stroke-linecap="round" stroke-linejoin="round" stroke-miterlimit="10" stroke-dasharray="none" stroke-opacity="" data-original="#000000" class=""></path><path d="M0 0c-5.535-10.297-16.233-16.037-27.164-15.744-6.28 8.946-7.389 21.045-1.854 31.342 5.536 10.298 16.233 16.037 27.16 15.734C4.416 22.376 5.53 10.288 0 0" style="fill-opacity:1;fill-rule:nonzero;stroke:none" transform="translate(225.556 413.12)" fill="#a3e440" data-original="#a3e440"></path><path d="M0 0c-5.535-10.297-16.233-16.037-27.164-15.744-6.28 8.946-7.389 21.045-1.854 31.342 5.536 10.298 16.233 16.037 27.16 15.734C4.416 22.376 5.53 10.288 0 0Z" style="stroke-width:15;stroke-linecap:round;stroke-linejoin:round;stroke-miterlimit:10;stroke-dasharray:none;stroke-opacity:1" transform="translate(225.556 413.12)" fill="none" stroke="#000000" stroke-width="15" stroke-linecap="round" stroke-linejoin="round" stroke-miterlimit="10" stroke-dasharray="none" stroke-opacity="" data-original="#000000" class=""></path><path d="M0 0c2.378-11.446-2.127-22.719-10.689-29.521-10.561 2.816-19.187 11.372-21.566 22.818-2.379 11.447 2.127 22.719 10.692 29.51C-11 19.979-2.376 11.436 0 0" style="fill-opacity:1;fill-rule:nonzero;stroke:none" transform="translate(197.958 428.512)" fill="#2db181" data-original="#2db181"></path><path d="M0 0c2.378-11.446-2.127-22.719-10.689-29.521-10.561 2.816-19.187 11.372-21.566 22.818-2.379 11.447 2.127 22.719 10.692 29.51C-11 19.979-2.376 11.436 0 0Z" style="stroke-width:15;stroke-linecap:round;stroke-linejoin:round;stroke-miterlimit:10;stroke-dasharray:none;stroke-opacity:1" transform="translate(197.958 428.512)" fill="none" stroke="#000000" stroke-width="15" stroke-linecap="round" stroke-linejoin="round" stroke-miterlimit="10" stroke-dasharray="none" stroke-opacity="" data-original="#000000" class=""></path><path d="M0 0c-5.029-34.641-37.188-58.646-71.829-53.617-34.64 5.029-58.646 37.188-53.616 71.829 5.028 34.641 35.032 43.801 69.673 38.772C-21.131 51.955 5.029 34.641 0 0" style="fill-opacity:1;fill-rule:nonzero;stroke:none" transform="translate(251.81 363.306)" fill="#f82f41" data-original="#f82f41"></path><path d="M0 0c-5.03-34.647-37.191-58.645-71.829-53.617a63.841 63.841 0 0 0-15.008 4.089c28.246 2.872 52.013 24.592 56.277 53.965 4.263 29.362-13.894 46.286-40.629 53.815 4.981-.066 10.143-.502 15.417-1.268C-21.135 51.956 5.028 34.637 0 0" style="fill-opacity:1;fill-rule:nonzero;stroke:none" transform="translate(251.811 363.307)" fill="#e22334" data-original="#e22334"></path><path d="M0 0c-5.029-34.641-37.188-58.646-71.829-53.617-34.64 5.029-58.646 37.188-53.616 71.829 5.028 34.641 35.032 43.801 69.673 38.772C-21.131 51.955 5.029 34.641 0 0Z" style="stroke-width:15;stroke-linecap:round;stroke-linejoin:round;stroke-miterlimit:10;stroke-dasharray:none;stroke-opacity:1" transform="translate(251.81 363.306)" fill="none" stroke="#000000" stroke-width="15" stroke-linecap="round" stroke-linejoin="round" stroke-miterlimit="10" stroke-dasharray="none" stroke-opacity="" data-original="#000000" class=""></path><path d="M0 0c12.647-34.683-5.217-73.052-39.9-85.699-34.683-12.647-73.052 5.218-85.699 39.901-12.647 34.683 5.217 73.051 39.9 85.698C-51.016 52.547-12.647 34.684 0 0" style="fill-opacity:1;fill-rule:nonzero;stroke:none" transform="translate(291.125 306.19)" fill="#dbf2b4" data-original="#dbf2b4" class=""></path><path d="M0 0c12.647-34.683-5.217-73.052-39.9-85.699-34.683-12.647-73.052 5.218-85.699 39.901-12.647 34.683 5.217 73.051 39.9 85.698C-51.016 52.547-12.647 34.684 0 0Z" style="stroke-width:15;stroke-linecap:round;stroke-linejoin:round;stroke-miterlimit:10;stroke-dasharray:none;stroke-opacity:1" transform="translate(291.125 306.19)" fill="none" stroke="#000000" stroke-width="15" stroke-linecap="round" stroke-linejoin="round" stroke-miterlimit="10" stroke-dasharray="none" stroke-opacity="" data-original="#000000" class=""></path><path d="M0 0s-8.137 24.369 16.345 40.412c0 0-10.872 24.783-1.663 42.521 1.746 3.364 5.922 4.608 9.272 2.835C35.112 79.862 59.376 62.64 63.46 23.141c4.261-41.207-33.963-66.745-49.539-75.364a10.877 10.877 0 0 0-12.704 1.585C-7.166-42.77-18.889-25.502 0 0" style="fill-opacity:1;fill-rule:nonzero;stroke:none" transform="translate(244.963 266.418)" fill="#bcea73" data-original="#bcea73" class=""></path><path d="M0 0c4.259-41.201-33.96-66.738-49.532-75.357a10.877 10.877 0 0 0-10.418-.057C-42.62-62.817-20.855-40.42-24.122-8.796c-2.98 28.799-16.682 45.75-28.223 55.118l-.004.011c.325 4.593 1.376 9.231 3.577 13.462 1.737 3.366 5.92 4.612 9.266 2.833C-28.345 56.724-4.081 39.499 0 0" style="fill-opacity:1;fill-rule:nonzero;stroke:none" transform="translate(308.42 289.556)" fill="#a3e440" data-original="#a3e440"></path><path d="M0 0s-8.137 24.369 16.345 40.412c0 0-10.872 24.783-1.663 42.521 1.746 3.364 5.922 4.608 9.272 2.835C35.112 79.862 59.376 62.64 63.46 23.141c4.261-41.207-33.963-66.745-49.539-75.364a10.877 10.877 0 0 0-12.704 1.585C-7.166-42.77-18.889-25.502 0 0Z" style="stroke-width:15;stroke-linecap:round;stroke-linejoin:round;stroke-miterlimit:10;stroke-dasharray:none;stroke-opacity:1" transform="translate(244.963 266.418)" fill="none" stroke="#000000" stroke-width="15" stroke-linecap="round" stroke-linejoin="round" stroke-miterlimit="10" stroke-dasharray="none" stroke-opacity="" data-original="#000000" class=""></path><path d="M0 0a10.869 10.869 0 0 1 6.962 6.348c4.291 10.653 11.65 37.332-9.314 61.164-25.065 28.494-57.379 13.903-57.379 13.903s-2.659 31.048-20.949 32.804c-17.231 1.655-50.083-59.828-1.802-102.888C-54.667-13.476-13.817-4.162 0 0" style="fill-opacity:1;fill-rule:nonzero;stroke:none" transform="translate(247.7 209.344)" fill="#a3e440" data-original="#a3e440"></path><path d="M0 0a10.885 10.885 0 0 0-6.96-6.351 96.188 96.188 0 0 0-3.14-.889c2.37 13.011 1.641 31.205-13.113 47.981-18.612 21.17-41.234 18.558-51.639 15.822-3.001-.792-6.056 1.116-6.667 4.16-1.819 9.135-6.901 25.463-20.02 26.724-2.519.244-5.358-.862-8.234-3.049 5.685 14.534 15.177 24.144 22.129 23.471 18.297-1.755 20.957-32.799 20.957-32.799S-34.38 89.664-9.308 61.167C11.647 37.33 4.297 10.657 0 0" style="fill-opacity:1;fill-rule:nonzero;stroke:none" transform="translate(254.66 215.69)" fill="#99d53b" data-original="#99d53b"></path><path d="M0 0a10.869 10.869 0 0 1 6.962 6.348c4.291 10.653 11.65 37.332-9.314 61.164-25.065 28.494-57.379 13.903-57.379 13.903s-2.659 31.048-20.949 32.804c-17.231 1.655-50.083-59.828-1.802-102.888C-54.667-13.476-13.817-4.162 0 0Z" style="stroke-width:15;stroke-linecap:round;stroke-linejoin:round;stroke-miterlimit:10;stroke-dasharray:none;stroke-opacity:1" transform="translate(247.7 209.344)" fill="none" stroke="#000000" stroke-width="15" stroke-linecap="round" stroke-linejoin="round" stroke-miterlimit="10" stroke-dasharray="none" stroke-opacity="" data-original="#000000" class=""></path><path d="M0 0c2.478-11.573 2.77-26.721-3.818-44.275" style="stroke-width:15;stroke-linecap:round;stroke-linejoin:round;stroke-miterlimit:10;stroke-dasharray:none;stroke-opacity:1" transform="translate(288.028 276.795)" fill="none" stroke="#000000" stroke-width="15" stroke-linecap="round" stroke-linejoin="round" stroke-miterlimit="10" stroke-dasharray="none" stroke-opacity="" data-original="#000000" class=""></path><path d="M0 0c-2.732-36.815-34.792-64.446-71.608-61.713-36.816 2.732-64.446 34.792-61.714 71.608C-130.59 46.71-98.53 74.34-61.714 71.608-24.898 68.876 2.732 36.816 0 0" style="fill-opacity:1;fill-rule:nonzero;stroke:none" transform="translate(190.018 293.91)" fill="#dbf2b4" data-original="#dbf2b4" class=""></path><path d="M0 0c-2.732-36.815-34.792-64.446-71.608-61.713-36.816 2.732-64.446 34.792-61.714 71.608C-130.59 46.71-98.53 74.34-61.714 71.608-24.898 68.876 2.732 36.816 0 0Z" style="stroke-width:15;stroke-linecap:round;stroke-linejoin:round;stroke-miterlimit:10;stroke-dasharray:none;stroke-opacity:1" transform="translate(190.018 293.91)" fill="none" stroke="#000000" stroke-width="15" stroke-linecap="round" stroke-linejoin="round" stroke-miterlimit="10" stroke-dasharray="none" stroke-opacity="" data-original="#000000" class=""></path><path d="M0 0s2.602 25.56 31.516 30.117c0 0 .279 27.062 15.967 39.445 2.975 2.348 7.293 1.765 9.618-1.229 7.742-9.971 22.779-35.646 10.261-73.332C54.303-44.313 8.959-51.876-8.783-53.328a10.878 10.878 0 0 0-10.929 6.669C-24.118-36.041-27.705-15.48 0 0" style="fill-opacity:1;fill-rule:nonzero;stroke:none" transform="translate(131.586 276.635)" fill="#bcea73" data-original="#bcea73" class=""></path><path d="M0 0c-13.058-39.308-58.397-46.873-76.136-48.327a10.878 10.878 0 0 0-9.52 4.233C-64.679-39.737-35.629-28.27-25.604 1.9-16.48 29.378-22 50.463-28.669 63.748l.001.011c2.184 4.054 5.05 7.849 8.795 10.802 2.967 2.353 7.293 1.77 9.612-1.228C-2.515 63.362 12.521 37.684 0 0" style="fill-opacity:1;fill-rule:nonzero;stroke:none" transform="translate(198.944 271.635)" fill="#a3e440" data-original="#a3e440"></path><path d="M0 0s2.602 25.56 31.516 30.117c0 0 .279 27.062 15.967 39.445 2.975 2.348 7.293 1.765 9.618-1.229 7.742-9.971 22.779-35.646 10.261-73.332C54.303-44.313 8.959-51.876-8.783-53.328a10.878 10.878 0 0 0-10.929 6.669C-24.118-36.041-27.705-15.48 0 0Z" style="stroke-width:15;stroke-linecap:round;stroke-linejoin:round;stroke-miterlimit:10;stroke-dasharray:none;stroke-opacity:1" transform="translate(131.586 276.635)" fill="none" stroke="#000000" stroke-width="15" stroke-linecap="round" stroke-linejoin="round" stroke-miterlimit="10" stroke-dasharray="none" stroke-opacity="" data-original="#000000" class=""></path><path d="M0 0a10.87 10.87 0 0 1 8.957 2.924c8.292 7.947 25.969 29.241 16.658 59.584-11.133 36.281-46.588 36.266-46.588 36.266s10.343 29.395-5.608 38.517c-15.027 8.593-70.253-33.945-43.947-93.047C-55.373 10.193-14.306 1.887 0 0" style="fill-opacity:1;fill-rule:nonzero;stroke:none" transform="translate(110.612 223.484)" fill="#a3e440" data-original="#a3e440"></path><path d="M0 0a10.883 10.883 0 0 0-8.956-2.927c-.965.126-2.038.282-3.228.48 7.51 10.886 14.326 27.771 7.775 49.129-8.261 26.95-29.956 33.871-40.566 35.655-3.062.512-5.062 3.508-4.367 6.533 2.097 9.076 4.178 26.049-7.262 32.592-2.195 1.258-5.238 1.418-8.759.607 11.158 10.911 23.762 15.768 29.823 12.296 15.957-9.123 5.618-38.514 5.618-38.514s35.449.019 46.587-36.267C25.966 29.239 8.299 7.947 0 0" style="fill-opacity:1;fill-rule:nonzero;stroke:none" transform="translate(119.567 226.407)" fill="#99d53b" data-original="#99d53b"></path><path d="M0 0c1.13-5.354 2.9-10.89 5.434-16.582 15.155-34.05 56.222-42.356 70.528-44.244a10.873 10.873 0 0 1 8.956 2.924c8.292 7.947 25.97 29.241 16.659 59.585-11.133 36.28-46.588 36.266-46.588 36.266s10.343 29.395-5.608 38.516C39.021 82.389 9.562 64.011.875 32.661" style="stroke-width:15;stroke-linecap:round;stroke-linejoin:round;stroke-miterlimit:10;stroke-dasharray:none;stroke-opacity:1" transform="translate(34.65 284.31)" fill="none" stroke="#000000" stroke-width="15" stroke-linecap="round" stroke-linejoin="round" stroke-miterlimit="10" stroke-dasharray="none" stroke-opacity="" data-original="#000000" class=""></path><path d="M0 0s-9.186-35.641 32.423-70.451" style="stroke-width:15;stroke-linecap:round;stroke-linejoin:round;stroke-miterlimit:10;stroke-dasharray:none;stroke-opacity:1" transform="translate(78.189 293.935)" fill="none" stroke="#000000" stroke-width="15" stroke-linecap="round" stroke-linejoin="round" stroke-miterlimit="10" stroke-dasharray="none" stroke-opacity="" data-original="#000000" class=""></path><path d="M0 0c-2.5-11.569-8.462-25.497-21.685-38.79" style="stroke-width:15;stroke-linecap:round;stroke-linejoin:round;stroke-miterlimit:10;stroke-dasharray:none;stroke-opacity:1" transform="translate(175.108 268.388)" fill="none" stroke="#000000" stroke-width="15" stroke-linecap="round" stroke-linejoin="round" stroke-miterlimit="10" stroke-dasharray="none" stroke-opacity="" data-original="#000000" class=""></path><path d="M0 0s-2.939 19.412 14.172 24.17" style="stroke-width:15;stroke-linecap:round;stroke-linejoin:round;stroke-miterlimit:10;stroke-dasharray:none;stroke-opacity:1" transform="translate(116.85 313.555)" fill="none" stroke="#000000" stroke-width="15" stroke-linecap="round" stroke-linejoin="round" stroke-miterlimit="10" stroke-dasharray="none" stroke-opacity="" data-original="#000000" class=""></path><path d="M0 0s7.432 13.312 6.794 27.104" style="stroke-width:15;stroke-linecap:round;stroke-linejoin:round;stroke-miterlimit:10;stroke-dasharray:none;stroke-opacity:1" transform="translate(223.158 292.634)" fill="none" stroke="#000000" stroke-width="15" stroke-linecap="round" stroke-linejoin="round" stroke-miterlimit="10" stroke-dasharray="none" stroke-opacity="" data-original="#000000" class=""></path><path d="M489.532 100.228H22.469v94.642h467.063z" style="fill-opacity:1;fill-rule:nonzero;stroke:#000000;stroke-width:15;stroke-linecap:round;stroke-linejoin:round;stroke-miterlimit:10;stroke-dasharray:none;stroke-opacity:1" data-original="#000000"></path><path d="M0 0h-473.104c-6.599 0-11.948 5.349-11.948 11.948v68.261c0 6.599 5.349 11.948 11.948 11.948H0c6.599 0 11.948-5.349 11.948-11.948V11.948C11.948 5.349 6.599 0 0 0" style="fill-opacity:1;fill-rule:nonzero;stroke:none" transform="translate(492.552 166.719)" fill="#d6a59d" data-original="#d6a59d" class=""></path><path d="M0 0v-68.269c0-6.595-5.353-11.947-11.948-11.947h-31.565c6.607 0 11.948 5.352 11.948 11.947V0c0 6.595-5.341 11.948-11.948 11.948h31.565C-5.353 11.948 0 6.595 0 0" style="fill-opacity:1;fill-rule:nonzero;stroke:none" transform="translate(504.5 246.932)" fill="#ac8380" data-original="#ac8380"></path><path d="M0 0h-301.905c-6.599 0-11.948-5.35-11.948-11.948v-68.261c0-6.599 5.349-11.948 11.948-11.948h473.104c6.599 0 11.948 5.349 11.948 11.948v68.261C183.147-5.35 177.798 0 171.199 0H32.661" style="stroke-width:15;stroke-linecap:round;stroke-linejoin:round;stroke-miterlimit:10;stroke-dasharray:none;stroke-opacity:1" transform="translate(321.353 258.876)" fill="none" stroke="#000000" stroke-width="15" stroke-linecap="round" stroke-linejoin="round" stroke-miterlimit="10" stroke-dasharray="none" stroke-opacity="" data-original="#000000" class=""></path><path d="M0 0h-31.384v30.974H0A5.974 5.974 0 0 0 5.974 25V5.974A5.974 5.974 0 0 0 0 0" style="fill-opacity:1;fill-rule:nonzero;stroke:none" transform="translate(38.884 197.31)" fill="#ffe1da" data-original="#ffe1da"></path><path d="M0 0h-31.384v30.974H0A5.974 5.974 0 0 0 5.974 25V5.974A5.974 5.974 0 0 0 0 0Z" style="stroke-width:15;stroke-linecap:round;stroke-linejoin:round;stroke-miterlimit:10;stroke-dasharray:none;stroke-opacity:1" transform="translate(38.884 197.31)" fill="none" stroke="#000000" stroke-width="15" stroke-linecap="round" stroke-linejoin="round" stroke-miterlimit="10" stroke-dasharray="none" stroke-opacity="" data-original="#000000" class=""></path><path d="M0 0h-31.384a5.974 5.974 0 0 0-5.974 5.974V25c0 3.3 2.675 5.974 5.974 5.974H0Z" style="fill-opacity:1;fill-rule:nonzero;stroke:none" transform="translate(504.5 197.31)" fill="#ffe1da" data-original="#ffe1da"></path><path d="M0 0h-31.384a5.974 5.974 0 0 0-5.974 5.974V25c0 3.3 2.675 5.974 5.974 5.974H0Z" style="stroke-width:15;stroke-linecap:round;stroke-linejoin:round;stroke-miterlimit:10;stroke-dasharray:none;stroke-opacity:1" transform="translate(504.5 197.31)" fill="none" stroke="#000000" stroke-width="15" stroke-linecap="round" stroke-linejoin="round" stroke-miterlimit="10" stroke-dasharray="none" stroke-opacity="" data-original="#000000" class=""></path><path d="M0 0h-473.104c-6.599 0-11.948 5.349-11.948 11.948v68.261c0 6.599 5.349 11.948 11.948 11.948H0c6.599 0 11.948-5.349 11.948-11.948V11.948C11.948 5.349 6.599 0 0 0" style="fill-opacity:1;fill-rule:nonzero;stroke:none" transform="translate(492.552 44.562)" fill="#ac8380" data-original="#ac8380"></path><path d="M0 0v-68.257c0-6.595-5.353-11.948-11.948-11.948h-31.565c6.607 0 11.948 5.353 11.948 11.948V0a11.937 11.937 0 0 1-11.948 11.948h31.565C-5.353 11.948 0 6.607 0 0" style="fill-opacity:1;fill-rule:nonzero;stroke:none" transform="translate(504.5 124.768)" fill="#96756f" data-original="#96756f"></path><path d="M0 0h-110.067c-6.599 0-11.948-5.349-11.948-11.948v-68.261c0-6.599 5.349-11.948 11.948-11.948h473.105c6.598 0 11.947 5.349 11.947 11.948v68.261C374.985-5.349 369.636 0 363.038 0H32.661" style="stroke-width:15;stroke-linecap:round;stroke-linejoin:round;stroke-miterlimit:10;stroke-dasharray:none;stroke-opacity:1" transform="translate(129.515 136.719)" fill="none" stroke="#000000" stroke-width="15" stroke-linecap="round" stroke-linejoin="round" stroke-miterlimit="10" stroke-dasharray="none" stroke-opacity="" data-original="#000000" class=""></path><path d="M0 0h-31.384v30.974H0A5.974 5.974 0 0 0 5.974 25V5.974A5.974 5.974 0 0 0 0 0" style="fill-opacity:1;fill-rule:nonzero;stroke:none" transform="translate(38.884 75.153)" fill="#ffe1da" data-original="#ffe1da"></path><path d="M0 0h-31.384v30.974H0A5.974 5.974 0 0 0 5.974 25V5.974A5.974 5.974 0 0 0 0 0Z" style="stroke-width:15;stroke-linecap:round;stroke-linejoin:round;stroke-miterlimit:10;stroke-dasharray:none;stroke-opacity:1" transform="translate(38.884 75.153)" fill="none" stroke="#000000" stroke-width="15" stroke-linecap="round" stroke-linejoin="round" stroke-miterlimit="10" stroke-dasharray="none" stroke-opacity="" data-original="#000000" class=""></path><path d="M0 0h-31.384a5.974 5.974 0 0 0-5.974 5.974V25c0 3.3 2.675 5.974 5.974 5.974H0Z" style="fill-opacity:1;fill-rule:nonzero;stroke:none" transform="translate(504.5 75.153)" fill="#ffe1da" data-original="#ffe1da"></path><path d="M0 0h-31.384a5.974 5.974 0 0 0-5.974 5.974V25c0 3.3 2.675 5.974 5.974 5.974H0Z" style="stroke-width:15;stroke-linecap:round;stroke-linejoin:round;stroke-miterlimit:10;stroke-dasharray:none;stroke-opacity:1" transform="translate(504.5 75.153)" fill="none" stroke="#000000" stroke-width="15" stroke-linecap="round" stroke-linejoin="round" stroke-miterlimit="10" stroke-dasharray="none" stroke-opacity="" data-original="#000000" class=""></path></g></g></svg>