<svg xmlns="http://www.w3.org/2000/svg" version="1.1" xmlns:xlink="http://www.w3.org/1999/xlink" width="512" height="512" x="0" y="0" viewBox="0 0 504.5 504.5" style="enable-background:new 0 0 512 512" xml:space="preserve"><g><path fill="#ffdeb0" d="M235.626 108.733c0 47.201-28.759 74.848-64.234 74.848s-64.234-27.647-64.234-74.848 28.759-95.448 64.234-95.448 64.234 48.247 64.234 95.448z" opacity="1" data-original="#ffdeb0"></path><path fill="#fcd59f" d="M171.392 13.285c-6.984 0-13.705 1.876-20 5.24 25.682 13.722 44.234 52.299 44.234 90.208 0 37.907-18.555 63.186-44.234 71.678 6.296 2.082 13.015 3.17 20 3.17 35.476 0 64.234-27.647 64.234-74.848s-28.758-95.448-64.234-95.448z" opacity="1" data-original="#fcd59f"></path><path fill="#fff1ec" d="M364.095 108.733c0 47.201-28.759 74.848-64.234 74.848s-64.234-27.647-64.234-74.848 28.759-95.448 64.234-95.448 64.234 48.247 64.234 95.448z" opacity="1" data-original="#fff1ec"></path><path fill="#fce2c5" d="M299.861 13.285c-6.984 0-13.705 1.876-20 5.24 25.682 13.722 44.234 52.299 44.234 90.208 0 37.907-18.555 63.186-44.234 71.678 6.296 2.082 13.015 3.17 20 3.17 35.476 0 64.234-27.647 64.234-74.848s-28.758-95.448-64.234-95.448z" opacity="1" data-original="#fce2c5"></path><path fill="#fff1ec" d="M171.392 188.889c0 47.201-28.759 74.848-64.234 74.848s-64.234-27.647-64.234-74.848 28.759-95.448 64.234-95.448 64.234 48.248 64.234 95.448z" opacity="1" data-original="#fff1ec"></path><path fill="#fce2c5" d="M107.158 93.442c-6.984 0-13.705 1.876-20 5.24 25.682 13.722 44.234 52.299 44.234 90.208 0 37.907-18.555 63.186-44.234 71.678 6.296 2.082 13.015 3.17 20 3.17 35.476 0 64.234-27.647 64.234-74.848s-28.759-95.448-64.234-95.448z" opacity="1" data-original="#fce2c5"></path><path fill="#fcd59f" d="M299.861 188.889c0 47.201-28.759 74.848-64.234 74.848s-64.234-27.647-64.234-74.848 28.759-95.448 64.234-95.448 64.234 48.248 64.234 95.448z" opacity="1" data-original="#fcd59f"></path><path fill="#f7c783" d="M235.626 93.442c-6.984 0-13.705 1.876-20 5.24 25.682 13.722 44.234 52.299 44.234 90.208 0 37.907-18.555 63.186-44.234 71.678 6.296 2.082 13.015 3.17 20 3.17 35.476 0 64.234-27.647 64.234-74.848.001-47.201-28.758-95.448-64.234-95.448z" opacity="1" data-original="#f7c783"></path><path fill="#ffdeb0" d="M428.33 188.889c0 47.201-28.759 74.848-64.234 74.848s-64.234-27.647-64.234-74.848 28.759-95.448 64.234-95.448 64.234 48.248 64.234 95.448z" opacity="1" data-original="#ffdeb0"></path><path fill="#fcd59f" d="M364.095 93.442c-6.984 0-13.705 1.876-20 5.24 25.682 13.722 44.234 52.299 44.234 90.208 0 37.907-18.555 63.186-44.234 71.678 6.296 2.082 13.015 3.17 20 3.17 35.476 0 64.234-27.647 64.234-74.848.001-47.201-28.758-95.448-64.234-95.448z" opacity="1" data-original="#fcd59f"></path><path fill="#e8b266" d="M374.334 389.651H96.919c-36.413 0-65.932-29.519-65.932-65.932v-83.756h409.278v83.756c.001 36.414-29.518 65.932-65.931 65.932z" opacity="1" data-original="#e8b266"></path><path fill="#d9a359" d="M400.266 239.963v83.756c0 36.413-29.519 65.932-65.932 65.932h40c36.413 0 65.932-29.519 65.932-65.932v-83.756z" opacity="1" data-original="#d9a359"></path><path fill="#8f5a46" d="M445.684 239.963H25.569c-9.057 0-16.4-7.342-16.4-16.4v-.002c0-9.057 7.342-16.4 16.4-16.4h420.115c9.057 0 16.4 7.342 16.4 16.4v.002c0 9.058-7.343 16.4-16.4 16.4z" opacity="1" data-original="#8f5a46"></path><path fill="#fce2c5" d="M463.753 382.626H7.5a7.5 7.5 0 0 0 0 15h456.253a7.5 7.5 0 0 0 0-15z" opacity="1" data-original="#fce2c5"></path><path fill="#fff1ec" d="M504.5 380.473c0 47.201-28.759 74.848-64.234 74.848s-64.234-27.647-64.234-74.848 28.759-95.448 64.234-95.448 64.234 48.248 64.234 95.448z" opacity="1" data-original="#fff1ec"></path><path fill="#fce2c5" d="M440.266 285.026c-6.984 0-13.705 1.876-20 5.24 25.682 13.722 44.234 52.299 44.234 90.208 0 37.907-18.555 63.186-44.234 71.678 6.296 2.082 13.015 3.17 20 3.17 35.476 0 64.234-27.647 64.234-74.848s-28.759-95.448-64.234-95.448z" opacity="1" data-original="#fce2c5"></path><path fill="#ffdeb0" d="M330.214 362.752c47.203 0 74.852 28.757 74.852 64.231s-27.648 64.231-74.852 64.231-95.453-28.757-95.453-64.231 48.25-64.231 95.453-64.231z" opacity="1" data-original="#ffdeb0"></path><path fill="#fcd59f" d="M330.214 362.752c-6.908 0-13.837.62-20.636 1.783 35.301 6.764 55.487 32.147 55.487 62.448s-20.186 55.684-55.487 62.448c6.798 1.163 13.728 1.783 20.636 1.783 47.203 0 74.852-28.757 74.852-64.231s-27.649-64.231-74.852-64.231z" opacity="1" data-original="#fcd59f"></path><path fill="#f0d4b4" d="M317.215 44.187a7.5 7.5 0 0 0-10.604.223 7.5 7.5 0 0 0 .223 10.604c5.297 5.079 10.39 13.322 13.972 22.614a7.502 7.502 0 0 0 7 4.804 7.5 7.5 0 0 0 6.996-10.2c-4.411-11.44-10.657-21.4-17.587-28.045z" opacity="1" data-original="#f0d4b4"></path><g fill="#e8b266"><path d="M359.857 391.221a7.5 7.5 0 0 0-6.53 13.504c9.48 4.584 14.288 12.073 14.288 22.258a7.5 7.5 0 0 0 15 0c0-15.964-8.082-28.665-22.758-35.762zM252.895 124.77c-2.99-2.867-7.737-2.767-10.604.223s-2.767 7.737.223 10.604c5.296 5.078 10.388 13.32 13.972 22.615a7.502 7.502 0 0 0 9.697 4.3 7.5 7.5 0 0 0 4.3-9.696c-4.413-11.442-10.659-21.402-17.588-28.046z" fill="#e8b266" opacity="1" data-original="#e8b266"></path></g></g></svg>