<svg xmlns="http://www.w3.org/2000/svg" version="1.1" xmlns:xlink="http://www.w3.org/1999/xlink" width="512" height="512" x="0" y="0" viewBox="0 0 512 512" style="enable-background:new 0 0 512 512" xml:space="preserve"><g><path fill="#ffaa5c" d="M267.335 256c0-48.285-24.37-52.685-38.022-104.769C209.151 74.315 256.643 0 337.725 0s128.574 74.315 108.413 151.231c-13.652 52.084-38.022 56.484-38.022 104.769s24.37 52.685 38.022 104.769C466.299 437.685 418.807 512 337.725 512s-128.574-74.315-108.413-151.231c13.653-52.084 38.023-56.484 38.023-104.769z" opacity="1" data-original="#ffaa5c"></path><path fill="#cc624e" d="M254.986 295.475c9.192-43.918-5.983-70.256-41.669-77.016-34.641-6.561-64.821-1.538-79.872 45.274-13.734 42.716-12.866 107.931 24.381 115.726 37.248 7.796 87.969-40.066 97.16-83.984z" opacity="1" data-original="#cc624e"></path><path fill="#bc574a" d="M213.317 218.459c-10.871-2.059-21.302-2.976-30.965-1.82 4.05.401 8.184 1.024 12.384 1.82 35.686 6.76 50.861 33.098 41.669 77.016-7.776 37.154-45.274 77.127-79.192 83.839.205.047.406.102.613.145 37.247 7.796 87.968-40.066 97.16-83.984 9.192-43.919-5.983-70.257-41.669-77.016z" opacity="1" data-original="#bc574a"></path><path fill="#cc624e" d="M191.131 501.186c39.884-20.501 50.784-48.858 33.575-80.82-16.705-31.025-39.598-51.297-85.416-33.524-41.809 16.218-91.897 57.931-74.51 91.757 17.386 33.827 86.466 43.089 126.351 22.587z" opacity="1" data-original="#cc624e"></path><path fill="#bc574a" d="M224.705 420.366c-13.851-25.726-31.972-44.033-63.874-39.413 20.839 3.494 34.388 19.157 45.294 39.413 17.209 31.962 6.309 60.319-33.575 80.82-11.724 6.027-25.971 9.478-40.687 10.493 20.923 1.426 42.634-1.943 59.267-10.493 39.885-20.501 50.785-48.858 33.575-80.82z" opacity="1" data-original="#bc574a"></path><path fill="#ff9838" d="M408.116 256c0-48.285 24.37-52.685 38.022-104.769C466.299 74.315 418.807 0 337.725 0c-3.15 0-6.243.125-9.29.345 75.373 5.446 118.5 76.958 99.122 150.886-13.652 52.083-38.022 56.484-38.022 104.769s24.37 52.685 38.022 104.769c19.378 73.928-23.749 145.44-99.122 150.886 3.047.22 6.14.345 9.29.345 81.082 0 128.574-74.315 108.413-151.231-13.652-52.084-38.022-56.484-38.022-104.769z" opacity="1" data-original="#ff9838"></path><g fill="#ff811a"><path d="M390.931 338.373c-1.602-7.962-3.222-14.602-4.788-21.022-4.318-17.703-7.729-31.685-7.729-61.351s3.411-43.648 7.729-61.351c3.368-13.805 7.185-29.453 10.023-55.42 4.794-43.862 1.64-93.36-7.589-127.985l-.004-.002a109.262 109.262 0 0 0-18.271-6.906l-.014-.003c11.146 31.992 15.564 86.747 10.485 133.215-2.728 24.962-6.417 40.088-9.672 53.432-4.384 17.972-8.17 33.494-8.17 65.02s3.786 47.048 8.17 65.02c1.529 6.27 3.111 12.754 4.651 20.407.854 4.246 5.188 7.01 9.4 6 3.995-.958 6.59-5.029 5.779-9.054zM370.281 507.664a108.128 108.128 0 0 0 18.15-6.841c6.459-25.115 9.374-56.957 9.862-79.839a7.74 7.74 0 0 0-7.743-7.907 7.743 7.743 0 0 0-7.737 7.577c-.698 32.717-5.653 66.675-12.546 87.014a.057.057 0 0 0 .014-.004zM305.156 507.664a108.062 108.062 0 0 1-18.281-6.906c-9.239-34.622-12.387-84.129-7.587-127.99 2.839-25.961 6.648-41.61 10.023-55.422 4.315-17.693 7.721-31.68 7.721-61.347s-3.406-43.644-7.721-61.347c-1.456-5.936-2.952-12.067-4.439-19.283-.867-4.181 1.827-8.279 6.018-9.146 4.191-.857 8.289 1.827 9.146 6.018 1.435 6.937 2.901 12.934 4.315 18.736 4.377 17.971 8.165 33.497 8.165 65.022s-3.788 47.05-8.165 65.022c-3.252 13.347-6.947 28.47-9.672 53.43-5.079 46.463-.671 101.213 10.477 133.213zM305.156 4.335a108.22 108.22 0 0 0-18.214 6.872c-8.155 31.013-11.761 75.065-8.879 114.606.307 4.209 4.076 7.464 8.284 7.159s7.466-4.078 7.159-8.284c-3.145-43.136 1.627-91.499 11.653-120.354l-.003.001zM345.467 511.763V.237c-2.577 0-5.16-.237-7.743-.237-2.573 0-5.176.023-7.741.237v511.525c5.178.433 10.307.001 15.484.001z" fill="#ff811a" opacity="1" data-original="#ff811a"></path></g></g></svg>