<svg xmlns="http://www.w3.org/2000/svg" version="1.1" xmlns:xlink="http://www.w3.org/1999/xlink" width="512" height="512" x="0" y="0" viewBox="0 0 512 512" style="enable-background:new 0 0 512 512" xml:space="preserve"><g><path fill="#ddeafb" d="M35.836 94.973h86.546v67.582H35.836z" opacity="1" data-original="#ddeafb"></path><path fill="#cbe2ff" d="M90.656 94.973h31.726v67.582H90.656z" opacity="1" data-original="#cbe2ff"></path><path fill="#a298a5" d="M128.371 117.311H29.847c-5.523 0-10-4.477-10-10V82.635c0-5.523 4.477-10 10-10h98.524c5.523 0 10 4.477 10 10v24.676c0 5.523-4.477 10-10 10z" opacity="1" data-original="#a298a5"></path><path fill="#8b818e" d="M128.371 72.635h-11v13.676c0 5.523-4.477 10-10 10H19.847v11c0 5.523 4.477 10 10 10h98.524c5.523 0 10-4.477 10-10V82.635c0-5.523-4.477-10-10-10z" opacity="1" data-original="#8b818e"></path><path fill="#cbe2ff" d="M150.718 199.921s6.044-2.503 6.423-3.806a27.058 27.058 0 0 0 1.077-7.556v-19.4c0-8.432-6.836-15.268-15.268-15.268H15.268C6.836 153.891 0 160.727 0 169.159v19.4c0 2.579.369 5.121 1.077 7.556.379 1.303 6.423 3.806 6.423 3.806z" opacity="1" data-original="#cbe2ff"></path><path fill="#bed8fb" d="M115.726 169.159v19.4c0 3.959-.87 7.83-2.5 11.362h37.493s6.044-2.503 6.423-3.806a27.058 27.058 0 0 0 1.077-7.556v-19.4c0-8.432-6.836-15.268-15.268-15.268h-42.493c8.432 0 15.268 6.836 15.268 15.268z" opacity="1" data-original="#bed8fb"></path><path fill="#ddeafb" d="M312.544 158.982H212.326l-3-19.506v-54.89h106.218v54.89z" opacity="1" data-original="#ddeafb"></path><path fill="#ccf49f" d="M315.544 160.249v-20.774H209.326v20.774c0 8.806-3.206 17.31-9.02 23.924l-2.701 3.072a36.235 36.235 0 0 0-9.02 23.924v23.268l7.884 62.956-7.884 63.342v31.799c0 8.432 6.836 15.268 15.268 15.268h117.163c8.433 0 15.268-6.836 15.268-15.268v-31.799l-9.316-63.342 9.316-62.956v-23.268c0-8.806-3.206-17.31-9.02-23.924l-2.701-3.072a36.239 36.239 0 0 1-9.019-23.924z" opacity="1" data-original="#ccf49f"></path><path fill="#cbe2ff" d="M284.085 84.586v74.396h28.459l3-19.506v-54.89z" opacity="1" data-original="#cbe2ff"></path><path fill="#b3e59f" d="m327.265 187.245-2.701-3.072a36.235 36.235 0 0 1-9.02-23.924v-20.774h-31.459v20.774a36.24 36.24 0 0 0 9.02 23.924l2.701 3.072a36.235 36.235 0 0 1 9.02 23.924v181.365c0 8.433-6.836 15.268-15.268 15.268h31.459c8.432 0 15.268-6.836 15.268-15.268v-31.799l-9.316-63.342 9.316-62.956v-23.268c0-8.805-3.207-17.31-9.02-23.924z" opacity="1" data-original="#b3e59f"></path><path fill="#a298a5" d="m319.742 35.029-.884-.69a12.215 12.215 0 0 0-7.52-2.589h-97.806c-2.725 0-5.372.911-7.52 2.589l-.884.69a43.043 43.043 0 0 0 0 67.838l.884.69a12.215 12.215 0 0 0 7.52 2.589h97.806c2.725 0 5.372-.911 7.52-2.589l.884-.69a43.043 43.043 0 0 0 0-67.838z" opacity="1" data-original="#a298a5"></path><path fill="#8b818e" d="m319.742 35.029-.884-.69a12.215 12.215 0 0 0-7.52-2.589h-34.354c2.725 0 5.372.912 7.52 2.589l.884.69a43.043 43.043 0 0 1 0 67.838l-.884.69a12.215 12.215 0 0 1-7.52 2.589h34.354c2.725 0 5.372-.912 7.52-2.589l.884-.69a43.043 43.043 0 0 0 0-67.838z" opacity="1" data-original="#8b818e"></path><path fill="#ddeafb" d="M385.041 153.891h106.218v84.45H385.041z" opacity="1" data-original="#ddeafb"></path><path fill="#cbe2ff" d="M458.053 153.891h33.206v84.45h-33.206z" opacity="1" data-original="#cbe2ff"></path><path fill="#aa8080" d="M507 166.255H369.3a5 5 0 0 1-5-5v-27.857c0-13.807 11.193-25 25-25H487c13.807 0 25 11.193 25 25v27.857a5 5 0 0 1-5 5z" opacity="1" data-original="#aa8080"></path><path fill="#9d6b6b" d="M489.808 108.559c.103.922.161 1.858.161 2.808v27.857a5 5 0 0 1-5 5H364.3v17.031a5 5 0 0 0 5 5H507a5 5 0 0 0 5-5v-27.857c0-12.858-9.708-23.443-22.192-24.839z" opacity="1" data-original="#9d6b6b"></path><path fill="#a298a5" d="M336.285 234.437h-35.367a5.072 5.072 0 0 1-4.848-3.565c-4.447-14.351-17.822-24.777-33.635-24.777s-29.188 10.425-33.635 24.777a5.071 5.071 0 0 1-4.848 3.565h-35.367v126.298h147.7z" opacity="1" data-original="#a298a5"></path><path fill="#ccf49f" d="M491.202 322.075s11.95-28.506 14.431-38.662c.414-1.693.858-3.36 1.332-4.997C510.184 267.3 512 255.825 512 244.252c0-14.322-11.61-25.932-25.932-25.932h-95.836c-14.322 0-25.932 11.61-25.932 25.932 0 11.573 1.816 23.048 5.035 34.164 3.318 11.457 5.181 24.337 5.181 37.955 0 13.617-1.863 26.498-5.181 37.955-3.219 11.116-5.035 22.591-5.035 34.164v.082c0 10.067 8.161 18.227 18.227 18.227h111.246c10.067 0 18.227-8.161 18.227-18.227v-.082c0-9.363-1.189-18.662-3.347-27.758-.51-2.148-17.451-38.657-17.451-38.657z" opacity="1" data-original="#ccf49f"></path><path fill="#b3e59f" d="M512 244.252c0-14.322-11.61-25.932-25.932-25.932h-28.015c14.322 0 25.932 11.61 25.932 25.932 0 11.573-1.816 23.048-5.035 34.164-3.318 11.457-5.181 24.337-5.181 37.955 0 13.617 1.863 26.498 5.181 37.955 3.219 11.116 5.035 22.591 5.035 34.164v.082c0 10.067-8.161 18.227-18.227 18.227h28.015c10.067 0 18.227-8.161 18.227-18.227v-.082c0-9.363-1.189-18.662-3.347-27.758-.51-2.147-17.451-38.656-17.451-38.656s11.95-28.506 14.431-38.662c.414-1.693.858-3.36 1.332-4.997C510.184 267.3 512 255.825 512 244.252z" opacity="1" data-original="#b3e59f"></path><path fill="#bed8fb" d="M497.49 199.921H378.81a7.634 7.634 0 0 1 0-15.268h118.68c4.217 0 7.634 3.418 7.634 7.634s-3.417 7.634-7.634 7.634z" opacity="1" data-original="#bed8fb"></path><path fill="#8b818e" d="M304.826 234.437h31.459v126.298h-31.459z" opacity="1" data-original="#8b818e"></path><path fill="#f4ddb1" d="M150.859 207.13a27.106 27.106 0 0 0 6.284-11.015H1.075a27.112 27.112 0 0 0 6.284 11.015l14.918 15.868c13.815 14.694 13.832 37.595.039 52.31L7.331 291.294A27.112 27.112 0 0 0 0 309.835v82.699c0 8.433 6.836 15.268 15.268 15.268H142.95c8.433 0 15.268-6.836 15.268-15.268v-82.699a27.114 27.114 0 0 0-7.331-18.542l-14.984-15.986c-13.793-14.715-13.776-37.616.039-52.31z" opacity="1" data-original="#f4ddb1"></path><path fill="#efcb84" d="M100.457 407.803h42.493c8.433 0 15.268-6.836 15.268-15.268v-82.699a27.114 27.114 0 0 0-7.331-18.542l-14.984-15.986c-13.793-14.715-13.776-37.616.039-52.31l14.917-15.868a27.106 27.106 0 0 0 6.284-11.015H114.65a27.112 27.112 0 0 1-6.284 11.015l-14.918 15.868c-13.815 14.694-13.832 37.595-.039 52.31l14.984 15.986a27.113 27.113 0 0 1 7.331 18.542v82.699c.002 8.432-6.834 15.268-15.267 15.268z" opacity="1" data-original="#efcb84"></path><ellipse cx="79.109" cy="312.874" fill="#aa8080" rx="31.658" ry="25.539" opacity="1" data-original="#aa8080"></ellipse><path fill="#aa8080" d="M120.294 377.218h-82.37c-4.217 0-7.634-3.418-7.634-7.634s3.417-7.634 7.634-7.634h82.37c4.217 0 7.634 3.418 7.634 7.634s-3.417 7.634-7.634 7.634z" opacity="1" data-original="#aa8080"></path><path fill="#9d6b6b" d="M120.294 377.218c4.217 0 7.634-3.418 7.634-7.634s-3.417-7.634-7.634-7.634h-4.569v15.268z" opacity="1" data-original="#9d6b6b"></path><path fill="#756e78" d="M296.8 288.558h-68.73c-4.217 0-7.634-3.418-7.634-7.634s3.417-7.634 7.634-7.634h68.73c4.217 0 7.634 3.418 7.634 7.634s-3.417 7.634-7.634 7.634zM296.8 320.193h-68.73c-4.217 0-7.634-3.418-7.634-7.634s3.417-7.634 7.634-7.634h68.73c4.217 0 7.634 3.418 7.634 7.634s-3.417 7.634-7.634 7.634z" opacity="1" data-original="#756e78"></path><path fill="#f9efda" d="M405.152 283.415a5.09 5.09 0 0 0-5.089 5.089v67.141a5.09 5.09 0 0 0 5.089 5.089h103.484a135.883 135.883 0 0 0-1.671-6.41c-3.318-11.457-5.181-24.337-5.181-37.955 0-11.673 1.378-22.798 3.859-32.955H405.152z" opacity="1" data-original="#f9efda"></path><path fill="#efcb84" d="M506.965 354.325c-3.318-11.457-5.181-24.337-5.181-37.955 0-11.673 1.378-22.798 3.859-32.955h-28.015c-2.481 10.158-3.859 21.282-3.859 32.955 0 13.617 1.863 26.498 5.181 37.955a135.883 135.883 0 0 1 1.671 6.41h28.015a135.883 135.883 0 0 0-1.671-6.41z" opacity="1" data-original="#efcb84"></path><path fill="#95d6a4" d="M434.172 382.636a7.634 7.634 0 0 1-6.808-4.17 7.633 7.633 0 0 1 3.336-10.268c10.565-5.383 18.401-14.558 22.065-25.834s2.718-23.305-2.665-33.869a7.634 7.634 0 1 1 13.604-6.932c7.235 14.198 8.506 30.364 3.583 45.519-4.924 15.156-15.456 27.486-29.654 34.72a7.606 7.606 0 0 1-3.461.834z" opacity="1" data-original="#95d6a4"></path><path fill="#dd636e" d="m411.373 353.689-.038.001c-9.668.373-18.686 4.876-24.883 12.306-28.742 34.457-76.16 50.533-121.352 37.692-13.209-3.753-25.202-9.611-35.741-17.093-7.008-4.976-16.171 2.244-12.969 10.221 14.126 35.196 43.157 64.115 82.024 76.787 61.487 20.049 126.757-6.623 157.085-61.529 5.08-9.198 5.5-20.265 1.294-29.894a47.564 47.564 0 0 0-45.42-28.491z" opacity="1" data-original="#dd636e"></path><path fill="#da4a54" d="M456.792 382.18a47.546 47.546 0 0 0-25.858-25.095c2.204 8.335 1.215 17.278-3.011 24.929-30.327 54.905-95.597 81.577-157.084 61.529-15.561-5.074-29.54-12.757-41.622-22.399 15.951 23.921 39.747 42.856 69.197 52.459 61.487 20.049 126.757-6.623 157.084-61.529 5.08-9.197 5.5-20.265 1.294-29.894z" opacity="1" data-original="#da4a54"></path></g></svg>